<svg id="Layer_1" data-name="Layer 1" xmlns="http://www.w3.org/2000/svg" viewBox="0 0 225.71 339.78"><defs><style>.cls-1{fill:#ededed;}.cls-2{fill:#161616;}.cls-3{fill:#f3a5ae;}.cls-4{fill:#494949;}</style></defs><path class="cls-1" d="M65.5,303.68S25.06,312,8.88,265H19S6.25,244.3,8.88,212.33H19a63.32,63.32,0,0,1,12.28-58s17.25,26,21.29,48.56H79.23Z"/><path d="M113.51,184c55.64-3.55,44.47,47.7,44.47,47.7V332.33l-70.36.56c-36,0-43.08-11.77-43.08-36.7C44.54,262.38,57.88,187.56,113.51,184Z"/><path class="cls-1" d="M98.26,332.89a11.37,11.37,0,0,0,0-1.43V230.53a21,21,0,0,1,42,1.09v81.5c0,8.05.11,14.56.3,19.77h37.88V187.09c0-27.22-26.12-56-53.4-56h4c-38.11,0-69,26.81-69,64.84v137Z"/><path class="cls-2" d="M94.5,333.3a4.88,4.88,0,0,0,4.89-4.88,4.8,4.8,0,0,0-.19-1.36,23.33,23.33,0,0,0-44.71,0,4.9,4.9,0,0,0,3.35,6.05,4.8,4.8,0,0,0,1.36.19Z"/><path class="cls-2" d="M182.43,333.3a3.57,3.57,0,0,0,3.57-3.58,3.46,3.46,0,0,0-.09-.78,23.34,23.34,0,0,0-45.69,0,3.6,3.6,0,0,0,2.74,4.28,3.65,3.65,0,0,0,.74.08Z"/><path class="cls-2" d="M162.2,161.34l-82.16,1-1.41-4.49L77,152.52l-1.17-3.75-2-6.5-1.59-5.07L71,133.35,44.3,48.15A41,41,0,0,1,85.1,7.31h69.25a41,41,0,0,1,40.83,40.84L170.31,137l-1.06,3.81L167.82,146l-1.31,4.68-1,3.72-1.15,4.12Z"/><path class="cls-1" d="M147.52,71.47c0,5.36,2.71,9.71,6.06,9.71s6-4.35,6-9.71-2.7-9.61-6-9.61S147.52,66.11,147.52,71.47Z"/><path class="cls-3" d="M105.2,140.85l.42,17.05a14.46,14.46,0,0,0,14.7,14.2h.51a14.47,14.47,0,0,0,14-14.9l-.47-16.35Z"/><path class="cls-1" d="M78.34,73c0,5.36,2.71,9.71,6.06,9.71s6-4.35,6-9.71-2.71-9.72-6-9.72S78.34,67.65,78.34,73Z"/><path class="cls-2" d="M162.4,118.75,146.34,99.48c-9.52-11-42.77-11-52.27,0l-16.5,19.07a23.92,23.92,0,0,0-5.64,15.38v12a23.19,23.19,0,0,0,23,23.42h0c8.35,0,16-17.25,20.15-22.89h9.72c4.14,5.64,11.66,22.89,20,22.89a23.23,23.23,0,0,0,23-23.42h0v-12A23,23,0,0,0,162.4,118.75Z"/><path class="cls-4" d="M119,104.93h1.88c13.17.3,23.21,7.92,15.69,20.86-13.86,23.85-25.92,11.91-34.63,0S103.9,105.23,119,104.93Z"/><path d="M74.37,9.29l-34.7,2.64c-15.22,6.47-21.82,31-21.23,45.64l.2,4.85a72.45,72.45,0,0,0,11,35.4l3.51,5.67c2.63,4.24,9.5,4.56,12.64.58,8.83-11.18,22.58-32.54,22-56.47C66.84,12.49,74.37,9.29,74.37,9.29Z"/><path d="M164.71,9.29l37.73,3.05c15.72,6.46,20.59,30.55,20,45.23l-.2,4.85a71,71,0,0,1-11.4,35.4l-3.47,5.44c-2.78,4.35-10.06,4.68-13.38.6-9.12-11.24-23.14-32.48-22.47-56.26C172.49,12.49,164.71,9.29,164.71,9.29Z"/><circle class="cls-2" cx="74.05" cy="193.85" r="2.12"/><circle class="cls-2" cx="167.74" cy="227.61" r="1.7"/><circle class="cls-2" cx="151.18" cy="209.53" r="1.7"/><circle class="cls-2" cx="121.72" cy="195.98" r="1.7"/><circle class="cls-2" cx="167.85" cy="200.5" r="1.7"/><circle class="cls-2" cx="90.35" cy="251.14" r="3.59"/><circle class="cls-2" cx="69.62" cy="300.66" r="3.59"/><circle class="cls-2" cx="74.33" cy="246.44" r="1.11"/><circle class="cls-2" cx="92.58" cy="287.8" r="1.11"/><circle class="cls-2" cx="91.47" cy="235.42" r="1.11"/><circle class="cls-2" cx="149.71" cy="285.22" r="1.47"/><circle class="cls-2" cx="166.04" cy="273.03" r="1.47"/><circle class="cls-2" cx="168.78" cy="298.01" r="3.74"/></svg>