<svg id="Layer_1" data-name="Layer 1" xmlns="http://www.w3.org/2000/svg" viewBox="0 0 1920 1080"><defs><style>.cls-1{fill:#e96d00;stroke:#d15900;stroke-miterlimit:10;stroke-width:3px;}.cls-2{fill:#5fb4ff;}.cls-3{fill:#ffe500;}.cls-4{fill:#ea873d;opacity:0.25;}.cls-12,.cls-4{isolation:isolate;}.cls-5{fill:#1b4776;}.cls-6{fill:#606d44;}.cls-7{fill:#455429;}.cls-8{fill:#243010;}.cls-9{fill:#59514b;}.cls-10{fill:#9b3b34;}.cls-11{fill:#ad6331;}.cls-12{fill:#6d96a6;opacity:0.71;}.cls-13{font-size:60px;font-family:OpenSans-SemiBold, Open Sans;font-weight:600;}.cls-13,.cls-14{fill:#fff;}.cls-14{font-size:35px;font-family:OpenSans-Regular, Open Sans;}</style></defs><rect class="cls-1" x="900.23" y="709" width="292.37" height="112.14" rx="19"/><path d="M916.35,796.63a62,62,0,0,1-1.24-14l.19-8.5c.13-2.55.19-5.39.19-8.5a6.16,6.16,0,0,1-.57-2.38V763c.67-1.21,1-3.94,1-8.21l.09-4.39c.06-1.4.1-3,.1-4.68a40.69,40.69,0,0,0-.77-8.88,6.66,6.66,0,0,1,1-2.34,1.9,1.9,0,0,1,1.62-1h4.2a8.92,8.92,0,0,1,4.68,1.19,7.76,7.76,0,0,1,3,3.39,20.83,20.83,0,0,1,1.91,9.26c0,2.55,0,4.55-.09,6a20.82,20.82,0,0,1-1,5.06,6.33,6.33,0,0,1-.81,2,22,22,0,0,1-1.48,2,12.5,12.5,0,0,1-4.39,3,16.62,16.62,0,0,1-3.25,1.24v10.22l.2,6.11.19,3c.25,3.56.38,6.59.38,9.07a2.49,2.49,0,0,1-1,2,3.3,3.3,0,0,1-2.19.82Zm10.12-50a24.73,24.73,0,0,0-.28-4.3,6,6,0,0,0-.77-1.86,3.62,3.62,0,0,0-1.43-1.2,4.69,4.69,0,0,0-2.29-.57c0-.06-.35-.1-1.05-.1V744c0,3.75,0,7.09.09,10,0,3.31,0,5.48.1,6.49v2.2q5.63-.8,5.63-16.08Z"/><path d="M947.28,796.34a6,6,0,0,1-3.24,1,2.46,2.46,0,0,1-2-1,3.39,3.39,0,0,1-.81-2.15q0-8,.67-21.39.57-14.22.57-21.29v-.66q-.57-6-.57-9,0-9.06,3.34-9.07a2.47,2.47,0,0,1,2.39,2.39c0,1.21-.13,2.43-.29,3.63a33.74,33.74,0,0,0-.29,3.62q0,6.41.1,11.56t.09,11.45a13.17,13.17,0,0,0-.47,4v1.15l-.19,7.54c-.13,2.23-.2,4.77-.2,7.64,0,4.39,1.06,6.58,3.16,6.58h.62a7.88,7.88,0,0,1,1.19,0c.73-.07,1.47-.1,2.2-.1,3.43,0,5.14,1,5.15,2.87a2,2,0,0,1-.86,1.62,4.52,4.52,0,0,1-2.1.86A27.27,27.27,0,0,0,947.28,796.34Z"/><path d="M982.22,796.15a2.69,2.69,0,0,1-1.05-2.48,81.5,81.5,0,0,0-.95-9.74l-.38-2-9.45-1.43q-.58,2.19-1.63,8.88-.57,4.67-1.81,6.2a2.28,2.28,0,0,1-1.91.86,3.4,3.4,0,0,1-2.1-.72,2.11,2.11,0,0,1-1-1.76l.19-.48.09-.38a426.37,426.37,0,0,0,9.55-48.4q0-.39.09-1.29c.07-.61.13-1.48.2-2.63.19-2.35.39-4.23.62-5.63a7.37,7.37,0,0,1,1.09-3.15H977a4,4,0,0,1,2.29.62,2,2,0,0,1,1,1.76,169.55,169.55,0,0,0,2,21.58,190.8,190.8,0,0,1,1.91,20.62,21.79,21.79,0,0,0,.48,3,18.47,18.47,0,0,1,.47,2.87q0,.66,1,5.72a43.75,43.75,0,0,1,.86,5.92v.1a2.51,2.51,0,0,1-1.53,2.67A6.14,6.14,0,0,1,982.22,796.15ZM978.88,775a202.22,202.22,0,0,0-1.52-22l-1-9.93q-4.11,22.44-5.63,33.89,1.42,1,8.4,1.53A18.52,18.52,0,0,1,978.88,775Z"/><path d="M1000.36,795.2q1-2,1-16.23a60.75,60.75,0,0,0-.47-7.26l-.29-2.77c-.16-1.3-.26-2.6-.29-3.91v-2.48c-.63-1.59-1.8-4.55-3.48-8.88s-3-8-4.06-10.88c-1.21-3.38-1.82-5.67-1.81-6.88v-.48l2.19-1.62q1.62.2,3.44,4.2a85.85,85.85,0,0,1,3.39,10.12q1.86,6.58,1.86,7c.25-.7.76-3.08,1.53-7.16a100.15,100.15,0,0,1,2.58-10.79q1.62-4.66,3.34-4.67a2.58,2.58,0,0,1,1.67.57,1.79,1.79,0,0,1,.71,1.43q0,4.88-2.67,13.75-2.87,9.65-2.86,13.94v28.7q0,6.4-3.15,6.4C1002,797.3,1001.06,796.6,1000.36,795.2Z"/><path d="M1055.26,796.15a2.69,2.69,0,0,1-1-2.48,81.58,81.58,0,0,0-1-9.74l-.38-2-9.45-1.43c-.38,1.46-.93,4.42-1.63,8.88q-.57,4.67-1.81,6.2a2.28,2.28,0,0,1-1.91.86,3.4,3.4,0,0,1-2.1-.72,2.11,2.11,0,0,1-1-1.76l.19-.48.09-.38a423.33,423.33,0,0,0,9.55-48.4q0-.39.09-1.29c.07-.61.13-1.48.2-2.63.19-2.35.39-4.23.62-5.63a7.37,7.37,0,0,1,1.09-3.15h3.25a4,4,0,0,1,2.29.62,2,2,0,0,1,1,1.76,171.39,171.39,0,0,0,2,21.58,190.8,190.8,0,0,1,1.91,20.62,21.79,21.79,0,0,0,.48,3,17.37,17.37,0,0,1,.48,2.87,54.56,54.56,0,0,0,1,5.72,43.75,43.75,0,0,1,.86,5.92v.1a2.51,2.51,0,0,1-1.53,2.67A6.08,6.08,0,0,1,1055.26,796.15ZM1051.91,775a202.22,202.22,0,0,0-1.52-22l-1-9.93q-4.1,22.44-5.63,33.89,1.42,1,8.4,1.53A18.52,18.52,0,0,1,1051.91,775Z"/><path d="M1075.78,795.72a11.57,11.57,0,0,1-3.72-2.62,13,13,0,0,1-2.29-3.92,27.25,27.25,0,0,1-1.53-5,32.1,32.1,0,0,1-.76-5.25c-.2-2.29-.32-4.26-.39-5.92v-9.36c0-3.69.07-6.71.19-9.07a52.37,52.37,0,0,1,1.25-9.07,21.45,21.45,0,0,1,3-7.54,10.36,10.36,0,0,1,5.64-4.48,10.92,10.92,0,0,1,4-.67c2.73,0,4.09.79,4.1,2.38a2.28,2.28,0,0,1-.9,1.87,3.47,3.47,0,0,1-2.15.71,5.55,5.55,0,0,1-1-.09,3.74,3.74,0,0,0-1-.1,3.52,3.52,0,0,0-2.86,1.72,15.2,15.2,0,0,0-2.1,4.77,76,76,0,0,0-2.1,12.89c-.26,4.33-.38,7.54-.38,9.64s.09,5.13.28,8.88a40.73,40.73,0,0,0,1.62,9.17,14,14,0,0,0,1.58,3.67,8.15,8.15,0,0,0,2.34,2.34,6.09,6.09,0,0,0,3.34,1q4.59,0,4.58-15.27V772a6,6,0,0,0-2.19-.28h-1.91c-2.23,0-3.34-.73-3.34-2.2a2.48,2.48,0,0,1,.9-2,3.69,3.69,0,0,1,2.34-.72v.1h1.34c5.73,0,8.6,1,8.59,3a24.76,24.76,0,0,1-.48,3.44,15.37,15.37,0,0,0-.57,3.43c0,1.09.1,2.77.29,5.06l.19,5.06a8.83,8.83,0,0,1-3.2,7.21,11.89,11.89,0,0,1-7.78,2.63A11.56,11.56,0,0,1,1075.78,795.72Z"/><path d="M1116.83,796.15a2.69,2.69,0,0,1-1-2.48,83.7,83.7,0,0,0-1-9.74l-.39-2L1105,780.5q-.57,2.19-1.62,8.88c-.38,3.11-1,5.18-1.81,6.2a2.28,2.28,0,0,1-1.91.86,3.4,3.4,0,0,1-2.1-.72,2.11,2.11,0,0,1-1-1.76l.19-.48.1-.38a428.57,428.57,0,0,0,9.55-48.4q0-.39.09-1.29c.06-.61.13-1.48.19-2.63q.28-3.53.62-5.63a7.38,7.38,0,0,1,1.1-3.15h3.25a4,4,0,0,1,2.29.62,2,2,0,0,1,1,1.76,169.55,169.55,0,0,0,2,21.58,190.8,190.8,0,0,1,1.91,20.62,21.76,21.76,0,0,0,.47,3,17.37,17.37,0,0,1,.48,2.87q0,.66,1,5.72a43.73,43.73,0,0,1,.85,5.92v.1a2.52,2.52,0,0,1-1.52,2.67A6.11,6.11,0,0,1,1116.83,796.15ZM1113.49,775a202.23,202.23,0,0,0-1.53-22l-1-9.93q-4.11,22.44-5.63,33.89,1.43,1,8.4,1.53A17,17,0,0,1,1113.49,775Z"/><path d="M1126.28,793c0-1.52,1-2.29,3-2.29h1l1,.1a1.14,1.14,0,0,0,1-.48,3.61,3.61,0,0,0,.28-1.72c0-1.08-.06-2.77-.19-5.06-.19-1.53-.41-4.26-.67-8.21q-.85-14.61-.86-22.05c0-1.78,0-3.41.1-4.87l.1-4.87a40.08,40.08,0,0,0-.29-5.25,11,11,0,0,1-2.2.38,2,2,0,0,1-2.29-1.66,2.22,2.22,0,0,1,0-.63,2.44,2.44,0,0,1,1.43-2,10.71,10.71,0,0,1,3.63-1.24,35.12,35.12,0,0,1,6.78-.76,2.68,2.68,0,0,1,2,.81,2.56,2.56,0,0,1,.81,1.86,2.87,2.87,0,0,1-.62,1.82,2,2,0,0,1-1.58.76,3.74,3.74,0,0,1-1-.1H1137a1.92,1.92,0,0,0-1.38.43,2.23,2.23,0,0,0-.43,1.58q0,9.26,1.15,27.88c.12,2.29.38,5.66.76,10.12a84.51,84.51,0,0,1,.48,9v3.63a13.51,13.51,0,0,1,1.91-.1c2.67,0,4,1.12,4,3.34V794l-2.39,1.62h-2.62c-2,.12-3.34.19-3.91.19Q1126.28,795.87,1126.28,793Z"/><path d="M1175.73,795.63a4.55,4.55,0,0,1-.86-2.15l-.57-1.81v-.48q0-3.15-6.54-21.48t-10.26-27.12v48l.38.66c.06.13.19.35.38.67a1.88,1.88,0,0,1,.29,1,2.89,2.89,0,0,1-.86,2.1,2.85,2.85,0,0,1-2.1.86q-3.06,0-3.06-5.83l-.09-16.32q-.09-7.35-.1-16.42,0-3.06.29-8.88c.19-4,.28-7,.29-8.88a8.31,8.31,0,0,1,3.43-7.06v.57a3,3,0,0,1,.77-.19q2.19,0,5.53,7.63a131.39,131.39,0,0,1,4.83,12.89q2.14,6.78,5.68,19.29l.95,3.44q2.19,7.73,3.34,11.07,1.92-20.52,1.91-48.5v-1.24a8.52,8.52,0,0,1-.09-1.24c0-1.91.76-2.87,2.29-2.87a2.33,2.33,0,0,1,2,1,4.61,4.61,0,0,1,.72,2.68v7.16q-.19,14.7-1.15,31.89t-2.29,19.37a19.23,19.23,0,0,1-3.44.77A2.27,2.27,0,0,1,1175.73,795.63Z"/><polygon class="cls-2" points="-9 -6.97 -8.95 44.64 -8.88 118.19 -8.79 203.06 -8.72 276.5 -8.29 704.94 -8.29 704.96 -8.2 801.96 -8.14 855.96 -8.14 863.51 -8.04 953.36 -8.03 966.09 -7.91 1079.99 -7.91 1080.98 933.04 1079.99 1921.45 1078.96 1922 1078.96 1921.9 974.13 1921.74 818.96 1921.56 642.95 1921.56 642.93 1920.9 -9 248.91 -7.25 47.54 -7.04 -9 -6.97"/><circle class="cls-3" cx="1761.07" cy="167.23" r="144.58"/><path class="cls-4" d="M1853.79,53.93a178.77,178.77,0,0,1,24.73,24.4c9.18,10.85,17.7,30.35,24.51,46.25,20.4,47.62-4.64,96.41-7.56,103.25-10.93,25.63-37.18,60.47-79.9,74-48.37,15.29-81.77,6.81-81.77,6.81s99.68-18.83,133.78-86.85C1903.06,151,1853.79,53.93,1853.79,53.93Z"/><polygon class="cls-5" points="627.17 705.33 612.45 703.36 614.13 690.82 605.29 689.64 603.62 702.17 588.4 700.13 587.86 704.14 603.08 706.18 591.24 794.43 600.08 795.62 611.91 707.37 626.63 709.34 627.17 705.33"/><path class="cls-6" d="M1848,568.74l-29-1c-5.29-.14-10.5-.27-15.65-.36l-11.19-.19c-44.12-.59-82.87.38-115.36,1.88-27.51,1.26-53.35,3-77.75,5.27l-5.94.55q-9.18.87-18.09,1.83l-3,.28c-71.7,7.84-130.26,19.64-181.22,33.53L1354.84,621c-16.8,5.22-32.82,10.64-48.31,16.19l-27.29,10c-12.41,4.7-24.56,9.45-36.58,14.2l-39.42,15.63c-81.25,32-163.78,61.64-292.11,73.79,0,0-163.88,15.51-212.44,93.09A91.22,91.22,0,0,0,685,887.83h0c5.36,42.46,84.82,34.4,718.08,108.3C1689.16,1029.51,1817.86,1048,1920,966V573C1905.24,571.88,1854.25,569,1848,568.74Zm47.71-69.57M1882,522.48m-19.16-26.09"/><path class="cls-7" d="M1112,804s-26-9-36.92-14.65c-27.58-14.28-173.33-58-327.88-84.15l-15.11-2.52c-93-15.54-183.89-28.68-241.84-36.78l-62.86-8.57c-23.18-3-48.64-6.61-76.16-11L291.78,636.2c-36.36-6.62-75.52-14.54-117.14-24a158.08,158.08,0,0,0-16.56-3.74q-31.14-7.31-64-15.82l-8.85-2.43Q43.85,579.34,0,566.32L-9,997c18.42,3.77,51.89-34.27,72-31,105.21,17.15,227.3,4,364.38,4,320.91,0,612.06-6.32,693.62-51,23.74-13,62-54.22,62-57C1182.94,856,1112,804,1112,804Z"/><path class="cls-8" d="M1925,972.09l-.12,113.9v1L984,1086l-988.41-1H-5l.1-104.83a624.76,624.76,0,0,1,66.74-26.58C248.32,890.26,584.84,848,969,848q41.41,0,82,.65C1436.44,854.75,1764.3,903.46,1925,972.09Z"/><path class="cls-9" d="M1904,1019v-15h-12.49a31.5,31.5,0,0,0-4.1-10.88l7.95-8.7-11.09-10.11-7.49,8.22a31,31,0,0,0-8.78-3.62V968h-15v10.91a31,31,0,0,0-8.78,3.62l-7.49-8.22-11.09,10.11,7.95,8.7a31.5,31.5,0,0,0-4.1,10.88H1817v15h13.46a31.61,31.61,0,0,0,4.68,9.18l-9.5,10.4,11.09,10.11,9.93-10.89a31,31,0,0,0,6.34,2.29V1055h15v-14.91a31,31,0,0,0,6.34-2.29l9.93,10.89,11.09-10.11-9.5-10.4a31.61,31.61,0,0,0,4.68-9.18Zm-43,7a14,14,0,1,1,14-14A14,14,0,0,1,1861,1026Z"/><path class="cls-10" d="M607.68,860.92a16.48,16.48,0,0,1-4.46,3.77c-.94-2.19-1.7-4.44-2.68-6.58a24.33,24.33,0,0,0-5.39-7.33h0l-.06-.06h.12a28.77,28.77,0,0,1,12.33,10Z"/><path class="cls-11" d="M616.89,861.94a1.27,1.27,0,0,1,.13-.19c0,.07.09.14.14.21Z"/><path class="cls-12" d="M576.64,193h812.74c49.85,0,90.27,41.55,90.27,92.81V766c0,51.25-40.42,92.8-90.27,92.8H576.64c-49.85,0-90.27-41.55-90.27-92.8V285.84C486.37,234.58,526.79,193,576.64,193Z"/><text class="cls-13" transform="translate(708.92 311.81)">SÅDAN SPILLER DU</text><text class="cls-14" transform="translate(548.85 396.23)">Det er en herlig dag og du har din hund Bailey med i <tspan x="0" y="42">parken. Som den ansvarlige hundeejer du er, skal du </tspan><tspan x="0" y="84">sørge for at han kun spiser kødben, og ikke dårlig </tspan><tspan x="0" y="126">broccoli.</tspan><tspan x="0" y="210">Du skal nå at samle mindst 15 kødben, inden tiden </tspan><tspan x="0" y="252">løber ud, ellers bliver Bailey ikke mæt! Pas på du ikke </tspan><tspan x="0" y="294">klikker på broccolien, det mister du liv på.</tspan></text></svg>