<svg id="Layer_1" data-name="Layer 1" xmlns="http://www.w3.org/2000/svg" xmlns:xlink="http://www.w3.org/1999/xlink" viewBox="0 0 1920 1080"><defs><style>.cls-1{fill:none;}.cls-2{fill:#e96d00;stroke:#d15900;stroke-miterlimit:10;stroke-width:3px;}.cls-3{fill:#5fb4ff;}.cls-4{fill:#ffe500;}.cls-5{fill:#ea873d;opacity:0.25;}.cls-13,.cls-16,.cls-5{isolation:isolate;}.cls-6{fill:#1b4776;}.cls-7{fill:#606d44;}.cls-8{fill:#455429;}.cls-9{fill:#ad6331;}.cls-10{fill:#6b420d;}.cls-11,.cls-16{fill:#8b6137;}.cls-12{clip-path:url(#clip-path);}.cls-13,.cls-14{fill:#cf974d;}.cls-13,.cls-16{opacity:0.63;}.cls-15{clip-path:url(#clip-path-2);}.cls-17{clip-path:url(#clip-path-3);}.cls-18{fill:#f9f9f9;}.cls-19{fill:#243010;}.cls-20{fill:#59514b;}.cls-21{fill:#ededed;}.cls-22{fill:#161616;}.cls-23{fill:#f3a5ae;}.cls-24{fill:#494949;}</style><clipPath id="clip-path"><path class="cls-1" d="M874.29,950.12C865.12,792.36,886,646.67,882.45,488.7c-2-89.77-12.86-182.83,12.71-269.31-4.57-3.85-7.87-8.4-12-11-3.13,6.49-14.36,22-16.2,28.43l-4.79-10.52c-6.78,1.79-17.79,5.34-24.54,3.43C814.55,473.25,808.45,706,824.49,950A103.83,103.83,0,0,0,874.29,950.12Z"/></clipPath><clipPath id="clip-path-2"><path class="cls-1" d="M1179.1,953.39c.65-239.39,9.27-479.84,23.13-718.9l-21-2.07-3.59,6.65a9.93,9.93,0,0,1-2.76-6.91c-8.93.26-16.76,1.34-25.49-.3a5882.23,5882.23,0,0,0-37.26,717.92C1135.07,956.34,1155.14,955.53,1179.1,953.39Z"/></clipPath><clipPath id="clip-path-3"><path class="cls-1" d="M1411.18,280.87c-101.1-8.47-202.85-4.21-304.28-7.14C951,269.27,794.71,248.67,639.07,257.62L625.18,301c-4.78-.6-7.18,5.29-8,9.87-3.33,19.8-6.61,40.29-1.17,59.62-8.65.23-11.38,11.21-11.57,19.52-.69,30.89-3,64.48-3.71,95.34l56.12,9.21c8.76,1.45,17.72,3,25.47,7.14-23,5.2-46.75,12.49-70.34,14.24l-2.08,27.33a13.67,13.67,0,0,0,.58,6.53c3.32,7.6,16.75,4.86,21.83,11.51-2.9,3.62-10,2.74-11.76,6.91a8.36,8.36,0,0,0-.31,3.75l6,77.71c254.8,1.75,511.55,6.19,766.11,17.95.67-38,2-76,2.66-113.94a5.42,5.42,0,0,0-.68-3.36,6.13,6.13,0,0,0-3.2-1.82l-24.28-7.59a140.73,140.73,0,0,1,37.08-10.41c2-26.31,4.65-54.55,6.61-80.86.65-8.35-.57-19.31-9-21.29l13.63-18.78-18.87-9.72c12.76-9,14.36-26.42,14.94-41.61C1411.88,332.94,1410.32,306.14,1411.18,280.87Z"/></clipPath></defs><rect class="cls-2" x="900.23" y="709" width="292.37" height="112.14" rx="19"/><path d="M916.35,796.63a62,62,0,0,1-1.24-14l.19-8.5c.13-2.55.19-5.39.19-8.5a6.16,6.16,0,0,1-.57-2.38V763c.67-1.21,1-3.94,1-8.21l.09-4.39c.06-1.4.1-3,.1-4.68a40.69,40.69,0,0,0-.77-8.88,6.66,6.66,0,0,1,1-2.34,1.9,1.9,0,0,1,1.62-1h4.2a8.92,8.92,0,0,1,4.68,1.19,7.76,7.76,0,0,1,3,3.39,20.83,20.83,0,0,1,1.91,9.26c0,2.55,0,4.55-.09,6a20.82,20.82,0,0,1-1,5.06,6.33,6.33,0,0,1-.81,2,22,22,0,0,1-1.48,2,12.5,12.5,0,0,1-4.39,3,16.62,16.62,0,0,1-3.25,1.24v10.22l.2,6.11.19,3c.25,3.56.38,6.59.38,9.07a2.49,2.49,0,0,1-1,2,3.3,3.3,0,0,1-2.19.82Zm10.12-50a24.73,24.73,0,0,0-.28-4.3,6,6,0,0,0-.77-1.86,3.62,3.62,0,0,0-1.43-1.2,4.69,4.69,0,0,0-2.29-.57c0-.06-.35-.1-1.05-.1V744c0,3.75,0,7.09.09,10,0,3.31,0,5.48.1,6.49v2.2q5.63-.8,5.63-16.08Z"/><path d="M947.28,796.34a6,6,0,0,1-3.24,1,2.46,2.46,0,0,1-2-1,3.39,3.39,0,0,1-.81-2.15q0-8,.67-21.39.57-14.22.57-21.29v-.66q-.57-6-.57-9,0-9.06,3.34-9.07a2.47,2.47,0,0,1,2.39,2.39c0,1.21-.13,2.43-.29,3.63a33.74,33.74,0,0,0-.29,3.62q0,6.41.1,11.56t.09,11.45a13.17,13.17,0,0,0-.47,4v1.15l-.19,7.54c-.13,2.23-.2,4.77-.2,7.64,0,4.39,1.06,6.58,3.16,6.58h.62a7.88,7.88,0,0,1,1.19,0c.73-.07,1.47-.1,2.2-.1,3.43,0,5.14,1,5.15,2.87a2,2,0,0,1-.86,1.62,4.52,4.52,0,0,1-2.1.86A27.27,27.27,0,0,0,947.28,796.34Z"/><path d="M982.22,796.15a2.69,2.69,0,0,1-1.05-2.48,81.5,81.5,0,0,0-.95-9.74l-.38-2-9.45-1.43q-.58,2.19-1.63,8.88-.57,4.67-1.81,6.2a2.28,2.28,0,0,1-1.91.86,3.4,3.4,0,0,1-2.1-.72,2.11,2.11,0,0,1-1-1.76l.19-.48.09-.38a426.37,426.37,0,0,0,9.55-48.4q0-.39.09-1.29c.07-.61.13-1.48.2-2.63.19-2.35.39-4.23.62-5.63a7.37,7.37,0,0,1,1.09-3.15H977a4,4,0,0,1,2.29.62,2,2,0,0,1,1,1.76,169.55,169.55,0,0,0,2,21.58,190.8,190.8,0,0,1,1.91,20.62,21.79,21.79,0,0,0,.48,3,18.47,18.47,0,0,1,.47,2.87q0,.66,1,5.72a43.75,43.75,0,0,1,.86,5.92v.1a2.51,2.51,0,0,1-1.53,2.67A6.14,6.14,0,0,1,982.22,796.15ZM978.88,775a202.22,202.22,0,0,0-1.52-22l-1-9.93q-4.11,22.44-5.63,33.89,1.42,1,8.4,1.53A18.52,18.52,0,0,1,978.88,775Z"/><path d="M1000.36,795.2q1-2,1-16.23a60.75,60.75,0,0,0-.47-7.26l-.29-2.77c-.16-1.3-.26-2.6-.29-3.91v-2.48c-.63-1.59-1.8-4.55-3.48-8.88s-3-8-4.06-10.88c-1.21-3.38-1.82-5.67-1.81-6.88v-.48l2.19-1.62q1.62.2,3.44,4.2a85.85,85.85,0,0,1,3.39,10.12q1.86,6.58,1.86,7c.25-.7.76-3.08,1.53-7.16a100.15,100.15,0,0,1,2.58-10.79q1.62-4.66,3.34-4.67a2.58,2.58,0,0,1,1.67.57,1.79,1.79,0,0,1,.71,1.43q0,4.88-2.67,13.75-2.87,9.65-2.86,13.94v28.7q0,6.4-3.15,6.4C1002,797.3,1001.06,796.6,1000.36,795.2Z"/><path d="M1055.26,796.15a2.69,2.69,0,0,1-1-2.48,81.58,81.58,0,0,0-1-9.74l-.38-2-9.45-1.43c-.38,1.46-.93,4.42-1.63,8.88q-.57,4.67-1.81,6.2a2.28,2.28,0,0,1-1.91.86,3.4,3.4,0,0,1-2.1-.72,2.11,2.11,0,0,1-1-1.76l.19-.48.09-.38a423.33,423.33,0,0,0,9.55-48.4q0-.39.09-1.29c.07-.61.13-1.48.2-2.63.19-2.35.39-4.23.62-5.63a7.37,7.37,0,0,1,1.09-3.15h3.25a4,4,0,0,1,2.29.62,2,2,0,0,1,1,1.76,171.39,171.39,0,0,0,2,21.58,190.8,190.8,0,0,1,1.91,20.62,21.79,21.79,0,0,0,.48,3,17.37,17.37,0,0,1,.48,2.87,54.56,54.56,0,0,0,1,5.72,43.75,43.75,0,0,1,.86,5.92v.1a2.51,2.51,0,0,1-1.53,2.67A6.08,6.08,0,0,1,1055.26,796.15ZM1051.91,775a202.22,202.22,0,0,0-1.52-22l-1-9.93q-4.1,22.44-5.63,33.89,1.42,1,8.4,1.53A18.52,18.52,0,0,1,1051.91,775Z"/><path d="M1075.78,795.72a11.57,11.57,0,0,1-3.72-2.62,13,13,0,0,1-2.29-3.92,27.25,27.25,0,0,1-1.53-5,32.1,32.1,0,0,1-.76-5.25c-.2-2.29-.32-4.26-.39-5.92v-9.36c0-3.69.07-6.71.19-9.07a52.37,52.37,0,0,1,1.25-9.07,21.45,21.45,0,0,1,3-7.54,10.36,10.36,0,0,1,5.64-4.48,10.92,10.92,0,0,1,4-.67c2.73,0,4.09.79,4.1,2.38a2.28,2.28,0,0,1-.9,1.87,3.47,3.47,0,0,1-2.15.71,5.55,5.55,0,0,1-1-.09,3.74,3.74,0,0,0-1-.1,3.52,3.52,0,0,0-2.86,1.72,15.2,15.2,0,0,0-2.1,4.77,76,76,0,0,0-2.1,12.89c-.26,4.33-.38,7.54-.38,9.64s.09,5.13.28,8.88a40.73,40.73,0,0,0,1.62,9.17,14,14,0,0,0,1.58,3.67,8.15,8.15,0,0,0,2.34,2.34,6.09,6.09,0,0,0,3.34,1q4.59,0,4.58-15.27V772a6,6,0,0,0-2.19-.28h-1.91c-2.23,0-3.34-.73-3.34-2.2a2.48,2.48,0,0,1,.9-2,3.69,3.69,0,0,1,2.34-.72v.1h1.34c5.73,0,8.6,1,8.59,3a24.76,24.76,0,0,1-.48,3.44,15.37,15.37,0,0,0-.57,3.43c0,1.09.1,2.77.29,5.06l.19,5.06a8.83,8.83,0,0,1-3.2,7.21,11.89,11.89,0,0,1-7.78,2.63A11.56,11.56,0,0,1,1075.78,795.72Z"/><path d="M1116.83,796.15a2.69,2.69,0,0,1-1-2.48,83.7,83.7,0,0,0-1-9.74l-.39-2L1105,780.5q-.57,2.19-1.62,8.88c-.38,3.11-1,5.18-1.81,6.2a2.28,2.28,0,0,1-1.91.86,3.4,3.4,0,0,1-2.1-.72,2.11,2.11,0,0,1-1-1.76l.19-.48.1-.38a428.57,428.57,0,0,0,9.55-48.4q0-.39.09-1.29c.06-.61.13-1.48.19-2.63q.28-3.53.62-5.63a7.38,7.38,0,0,1,1.1-3.15h3.25a4,4,0,0,1,2.29.62,2,2,0,0,1,1,1.76,169.55,169.55,0,0,0,2,21.58,190.8,190.8,0,0,1,1.91,20.62,21.76,21.76,0,0,0,.47,3,17.37,17.37,0,0,1,.48,2.87q0,.66,1,5.72a43.73,43.73,0,0,1,.85,5.92v.1a2.52,2.52,0,0,1-1.52,2.67A6.11,6.11,0,0,1,1116.83,796.15ZM1113.49,775a202.23,202.23,0,0,0-1.53-22l-1-9.93q-4.11,22.44-5.63,33.89,1.43,1,8.4,1.53A17,17,0,0,1,1113.49,775Z"/><path d="M1126.28,793c0-1.52,1-2.29,3-2.29h1l1,.1a1.14,1.14,0,0,0,1-.48,3.61,3.61,0,0,0,.28-1.72c0-1.08-.06-2.77-.19-5.06-.19-1.53-.41-4.26-.67-8.21q-.85-14.61-.86-22.05c0-1.78,0-3.41.1-4.87l.1-4.87a40.08,40.08,0,0,0-.29-5.25,11,11,0,0,1-2.2.38,2,2,0,0,1-2.29-1.66,2.22,2.22,0,0,1,0-.63,2.44,2.44,0,0,1,1.43-2,10.71,10.71,0,0,1,3.63-1.24,35.12,35.12,0,0,1,6.78-.76,2.68,2.68,0,0,1,2,.81,2.56,2.56,0,0,1,.81,1.86,2.87,2.87,0,0,1-.62,1.82,2,2,0,0,1-1.58.76,3.74,3.74,0,0,1-1-.1H1137a1.92,1.92,0,0,0-1.38.43,2.23,2.23,0,0,0-.43,1.58q0,9.26,1.15,27.88c.12,2.29.38,5.66.76,10.12a84.51,84.51,0,0,1,.48,9v3.63a13.51,13.51,0,0,1,1.91-.1c2.67,0,4,1.12,4,3.34V794l-2.39,1.62h-2.62c-2,.12-3.34.19-3.91.19Q1126.28,795.87,1126.28,793Z"/><path d="M1175.73,795.63a4.55,4.55,0,0,1-.86-2.15l-.57-1.81v-.48q0-3.15-6.54-21.48t-10.26-27.12v48l.38.66c.06.13.19.35.38.67a1.88,1.88,0,0,1,.29,1,2.89,2.89,0,0,1-.86,2.1,2.85,2.85,0,0,1-2.1.86q-3.06,0-3.06-5.83l-.09-16.32q-.09-7.35-.1-16.42,0-3.06.29-8.88c.19-4,.28-7,.29-8.88a8.31,8.31,0,0,1,3.43-7.06v.57a3,3,0,0,1,.77-.19q2.19,0,5.53,7.63a131.39,131.39,0,0,1,4.83,12.89q2.14,6.78,5.68,19.29l.95,3.44q2.19,7.73,3.34,11.07,1.92-20.52,1.91-48.5v-1.24a8.62,8.62,0,0,1-.09-1.24c0-1.91.76-2.87,2.29-2.87a2.33,2.33,0,0,1,2,1,4.61,4.61,0,0,1,.72,2.68v7.16q-.19,14.7-1.15,31.89t-2.29,19.37a19.23,19.23,0,0,1-3.44.77A2.27,2.27,0,0,1,1175.73,795.63Z"/><polygon class="cls-3" points="-9 -6.97 -8.95 44.64 -8.88 118.19 -8.79 203.06 -8.72 276.5 -8.29 704.94 -8.29 704.96 -8.2 801.96 -8.14 855.96 -8.14 863.51 -8.04 953.36 -8.03 966.09 -7.91 1079.99 -7.91 1080.98 933.04 1079.99 1921.45 1078.96 1922 1078.96 1921.9 974.13 1921.74 818.96 1921.56 642.95 1921.56 642.93 1920.9 -9 248.91 -7.25 47.54 -7.04 -9 -6.97"/><circle class="cls-4" cx="1761.07" cy="167.23" r="144.58"/><path class="cls-5" d="M1853.79,53.93a178.77,178.77,0,0,1,24.73,24.4c9.18,10.85,17.7,30.35,24.51,46.25,20.4,47.62-4.64,96.41-7.56,103.25-10.93,25.63-37.18,60.47-79.9,74-48.37,15.29-81.77,6.81-81.77,6.81s99.68-18.83,133.78-86.85C1903.06,151,1853.79,53.93,1853.79,53.93Z"/><polygon class="cls-6" points="627.17 705.33 612.45 703.36 614.13 690.82 605.29 689.64 603.62 702.17 588.4 700.13 587.86 704.14 603.08 706.18 591.24 794.43 600.08 795.62 611.91 707.37 626.63 709.34 627.17 705.33"/><path class="cls-7" d="M1855.53,572.93l-29.18-1.06c-5.33-.15-10.57-.29-15.76-.38l-11.26-.2c-44.4-.63-83.4.4-116.11,2-27.68,1.33-53.69,3.17-78.25,5.57l-6,.58q-9.24.93-18.2,1.94l-3,.29c-72.17,8.3-131.11,20.78-182.4,35.47l-36.17,11.11c-16.91,5.52-33,11.26-48.62,17.13L1283.09,656c-12.49,5-24.72,10-36.82,15l-39.67,16.54c-81.78,33.85-164.84,65.2-294,78.06,0,0-164.94,16.4-213.81,98.47A100,100,0,0,0,685,910.48h0c5.39,44.92,85.37,36.39,722.73,114.57,287.93,35.31,417.47,54.87,520.27-31.88V577.43C1913.14,576.25,1861.82,573.19,1855.53,572.93Zm48-73.6M1889.75,524m-19.28-27.6"/><path class="cls-8" d="M1112,804s-26-9-36.92-14.65c-27.58-14.28-173.33-58-327.88-84.15l-15.11-2.52c-93-15.54-183.89-28.68-241.84-36.78l-62.86-8.57c-23.18-3-48.64-6.61-76.16-11L291.78,636.2c-36.36-6.62-75.52-14.54-117.14-24a158.08,158.08,0,0,0-16.56-3.74q-31.14-7.31-64-15.82l-8.85-2.43Q43.85,579.34,0,566.32L-9,997c18.42,3.77,51.89-34.27,72-31,105.21,17.15,227.3,4,364.38,4,320.91,0,612.06-6.32,693.62-51,23.74-13,62-54.22,62-57C1182.94,856,1112,804,1112,804Z"/><path class="cls-9" d="M616.89,861.94a1.27,1.27,0,0,1,.13-.19c0,.07.09.14.14.21Z"/><g id="DESIGNED_BY_FREEPIK" data-name="DESIGNED BY FREEPIK"><path class="cls-10" d="M882.93,948.79C873.76,791,894.64,646.67,891.14,488.7c-2-89.77-12.85-182.83,12.71-269.31-8-2.3-15.63-7.78-20.11-9.95-.64,6.63-6.32,21-8.06,27.42l-4.79-10.52c-6.78,1.79-8.84,0-9.2,0-23.12,243.49-44.6,478.27-28.56,722.26A104,104,0,0,0,882.93,948.79Z"/><path class="cls-11" d="M874.29,950.12C865.12,792.36,886,646.67,882.45,488.7c-2-89.77-12.86-182.83,12.71-269.31-4.57-3.85-7.87-8.4-12-11-3.13,6.49-14.36,22-16.2,28.43l-4.79-10.52c-6.78,1.79-17.79,5.34-24.54,3.43C814.55,473.25,808.45,706,824.49,950A103.83,103.83,0,0,0,874.29,950.12Z"/><g class="cls-12"><path class="cls-13" d="M915.08,220.4c-16.35,37.73-34.28,76.81-42.25,117.16-9.05,45.76-6.49,95.07-6.61,141.5-.17,65.6,1.15,131.2,2.61,196.62a607.19,607.19,0,0,1-2.08,77.71,174.36,174.36,0,0,1-6.16,32.77c-1.51,4.82-6.39,20.72-13.52,21.23-12.55.73-8.14-61.85-7.19-69.43,2.64-23.22,7.19-46.17,8.36-69.56,2.59-46.91,6.75-93.73,10-140.59,3.62-52.44,3.47-104.8,5-157.29.75-24.12,2.83-48.79,0-72.85-3.06-27.3-11.08-54-9.21-81.62,0-1-2-.78-2.11,0-3,23.69,2.54,46.47,6.11,69.81,3.87,25.48,2.39,51.15,1.55,76.79-1.7,50.64-1.55,101.28-4.79,151.92s-7.9,100.73-10.67,151.19c-2.66,48.13-19.16,97-2.93,144.39a1.76,1.76,0,0,0,1.85.94c18.48-2.44,22.91-26.86,25.5-41.08,5.74-31.56,5.72-64.18,5.26-96.11-1.29-90.59-3.83-181.22-.6-271.82,1.15-32.66,3.24-64,13.39-95.43,9.43-29.23,23.75-56.86,32.6-86.25C919.7,218.77,915.66,219.06,915.08,220.4Z"/><path class="cls-13" d="M909.5,630.61c-4.14,24.37-15,46.72-20.3,70.78s-8.74,48.08-14.05,72c-2.71,12.17-4.41,24.51-7.18,36.64s-7.93,39.13-23.35,41.62c-38.9,6.12-12.35-200.47-13.28-218,0-1-1.08-.23-1.13.42-3.45,46.54-10.32,93.87-9.57,140.57.38,22-1.3,47.9,7.32,68.66,6.8,16.41,21.55,14.57,30.5.72,12.88-19.82,14.37-45.35,19.15-67.68,5.18-24.17,9.37-48.45,14.37-72.64,5-24.82,17.67-47.83,20.28-73.15C912.42,628.08,909.86,628.63,909.5,630.61Z"/><path class="cls-13" d="M899.54,803.5c-13.79,26-24.46,53.58-37.49,80-4.35,8.86-8.81,17.73-13.93,26.24-3.47,5.73-11.16,21.13-19.39,21.5-18.82.81-17.24-83.58-17.53-97.11,0-.83-1.91-1.87-1.94-.76a519.3,519.3,0,0,0,2.18,57.15c1.06,10.22,1.51,38,14,43.3,14.17,6.08,28.44-26.1,32.77-34.18a799.07,799.07,0,0,0,43.51-94.49C901.94,804.14,900.19,802.3,899.54,803.5Z"/><path class="cls-13" d="M886.16,892.3c-8.09,27.62-28,52.51-45.49,75.34-.33.46.12,1.82.67,1.2,18.08-20.72,43.1-47.74,46.57-75.78C888,892.05,886.59,890.85,886.16,892.3Z"/><path class="cls-13" d="M897.41,188.13c-5.31,17.45-13.5,34.32-17.33,52.16-3.06,14.25-.81,29.46-5.07,43.41-5.89-25.64-4.46-52.34-11.21-77.89-.17-.69-1.51-.19-1.39.39,5.68,27.62,4.38,55.89,10.49,83.39.33,1.48,2.68.62,3.16-.32,7.42-14.36,5.36-29.92,7.9-45.23,3.18-19.36,13.41-36.83,16.45-56.21C900.69,186.13,897.77,186.93,897.41,188.13Z"/><path class="cls-13" d="M838.26,218.6c-.46-1.19-1.68.21-1.44,1,6.66,22.58,3.09,45.81,4.6,68.8,0,2,2.39.9,2.39-.53C845.65,265.72,846.44,239.74,838.26,218.6Z"/></g><path class="cls-10" d="M1190.52,951.55c.65-239.39,9.43-466.88,23.27-705.95-5.34-4.37-4.79-10.22-11.73-10.91-1.2,2.31-11.66,13.33-12.86,15.56a9.9,9.9,0,0,1-2.84-7.06c-2.88-4.24-8.29-6.63-12.17-10.64-3.42-3.52-8.09,11.31-13.33,10.34-27,238.31-39.65,465.2-37.42,704.91C1146.49,954.5,1166.56,953.69,1190.52,951.55Z"/><path class="cls-14" d="M1179.1,953.39c.65-239.39,9.27-479.84,23.13-718.9l-21-2.07-3.59,6.65a9.93,9.93,0,0,1-2.76-6.91c-8.93.26-16.76,1.34-25.49-.3a5882.23,5882.23,0,0,0-37.26,717.92C1135.07,956.34,1155.14,955.53,1179.1,953.39Z"/><path class="cls-11" d="M1179.1,953.39c.65-239.39,9.27-479.84,23.13-718.9l-21-2.07-3.59,6.65a9.93,9.93,0,0,1-2.76-6.91c-8.93.26-16.76,1.34-25.49-.3a5882.23,5882.23,0,0,0-37.26,717.92C1135.07,956.34,1155.14,955.53,1179.1,953.39Z"/><g class="cls-15"><path class="cls-16" d="M1201.82,697.87c-33.52,30.17-46.16,76.19-52.67,118.43-7.92,51.63-13.86,109.08-2.15,160.55.33,1.47,1.77.23,1.62-.83-7.49-49.31-4.54-99,1.73-148.31,5.79-45.41,17.79-93.47,52.67-126.78C1204.1,699.82,1203.59,696.28,1201.82,697.87Z"/><path class="cls-16" d="M1191.05,727.77c.48-.79-.29-2.3-1.06-1.22-23.24,33.42-27.53,77.13-30.26,116.19-3,43.74-8,93.39,6.25,135.81.31.94,1.34,0,1.22-.71-7.18-43.92-7.66-86.87-4.79-131.21C1165,805.94,1170.08,763.88,1191.05,727.77Z"/><path class="cls-16" d="M1194.38,679.45c-5.68,9.53-13.46,17.13-20.55,25.64a132.44,132.44,0,0,0-16.92,27.83,264,264,0,0,0-23.44,72.65c-9.58,56.74-10.34,113.66-8.91,171,0,1.08,2.11.53,2.21-.37,2.39-27.21,1.22-54.6,2-81.88a669.92,669.92,0,0,1,8-82.15,270.46,270.46,0,0,1,23.29-77,147.72,147.72,0,0,1,20.28-32.57c6.23-7.32,12.48-14.32,16.59-23C1197.51,678.46,1194.88,678.72,1194.38,679.45Z"/><path class="cls-16" d="M1183.08,669.65c-21.29,23.77-43.24,48.06-57,76.81-15.68,32.73-20.63,70.09-26.62,105.35,0,.49,1.1.62,1.24.19,10.44-34.53,13.32-71.52,29.14-104.6,13.67-28.59,36.08-51.65,54.42-77.34C1184.58,669.51,1183.39,669.32,1183.08,669.65Z"/><path class="cls-16" d="M1166.48,662.6c-27.62,19.73-55.51,45.14-65.5,77.67-.38,1.19,1.1,1.42,1.51.34A130.59,130.59,0,0,1,1132,695.86c11.11-11.18,23.94-20.71,34.79-32.06C1167.15,663.52,1167.27,662.12,1166.48,662.6Z"/><path class="cls-16" d="M1158.58,273.18c-3.13-18.41,5.29-37.84,0-56-.21-.69-1,0-1,.51,0,18.94-5.27,38.26-2.23,57.11,2.8,17.45,10.73,34.27,15.54,51.26.31,1.1,1.75,0,1.7-.85C1171.44,307.11,1161.62,291,1158.58,273.18Z"/><path class="cls-16" d="M1176.85,264.64c-4.79-16.46-3.4-33.77-4.79-50.64,0-.53-.84,0-.86.3-1.22,15.63-1.89,32,1.53,47.44,3,13.54,9.36,26.59,13.58,39.8.24.76,1.39-.3,1.36-.78C1186.83,288,1180.37,276.79,1176.85,264.64Z"/><path class="cls-16" d="M1196,287c-17.64-21.82-9-44.84-13.71-69.61,0-.51-.72-.64-.72,0-.39,22.81-6.85,54.83,13.74,71.66C1196.41,289.89,1196.41,287.57,1196,287Z"/><path class="cls-16" d="M1194.28,220.42c-.31-.87-1,0-.86.67,4.43,15.19,8.14,30.41,11.68,45.81.24,1.06,1.39.87,1.39-.21C1206.44,250.69,1199.88,235.27,1194.28,220.42Z"/></g><path class="cls-10" d="M1422.63,369.35c-.53,15.22-2.18,32.62-14.94,41.62,2.77,1.42,5.55-3.09,8.31-1.66,3.51,1.82,7,9.58,10.53,11.51l-13.6,18.76c8.48,2,9.58,12.94,9,21.29-2,26.31-4.64,54.58-6.63,80.89a138.41,138.41,0,0,0-37,10.36c4.48,1.4,12-3.27,16.38-1.87,3.61,1.13,10.39,10.27,11.1,11.28a5.49,5.49,0,0,1,.67,3.36c-.67,38-2,76-2.65,113.92-254.52-11.76-511.23-16.12-766.11-18a44.87,44.87,0,0,1-11.49-10.91c-1.68-21.68,7.18-45.09,5.48-66.75a8,8,0,0,1,.31-3.73c1.75-4.23,8.86-3.36,11.76-6.9-5.15-6.59-18.53-3.87-21.86-11.51-.88-2-12-9.86-11.71-12.07.7-9.06,12.57-12.59,13.27-21.66,23.58-1.74,47.33-9,70.36-14.24-7.78-4.19-16.76-5.71-25.5-7.16l-56.09-9.21c0-4.9-12-6.9-12-11.95,1-26.58,15-57.54,15.61-83.41.19-8.31,2.94-19.27,11.59-19.5-5.46-19.34-2.16-39.84,1.17-59.62.76-4.6,3.23-10.49,8-9.87l13.86-43.67c155.62-8.88,312,11.72,467.83,16.11,95.07,2.74,198-10.4,292.82-3.89,6.34.44,8.33,6.61,11.46,11C1421.91,317.33,1423.49,344.08,1422.63,369.35Z"/><path class="cls-11" d="M1411.18,280.87c-101.1-8.47-202.85-4.21-304.28-7.14C951,269.27,794.71,248.67,639.07,257.62L625.18,301c-4.78-.6-7.18,5.29-8,9.87-3.33,19.8-6.61,40.29-1.17,59.62-8.65.23-11.38,11.21-11.57,19.52-.69,30.89-3,64.48-3.71,95.34l56.12,9.21c8.76,1.45,17.72,3,25.47,7.14-23,5.2-46.75,12.49-70.34,14.24l-2.08,27.33a13.67,13.67,0,0,0,.58,6.53c3.32,7.6,16.75,4.86,21.83,11.51-2.9,3.62-10,2.74-11.76,6.91a8.36,8.36,0,0,0-.31,3.75l6,77.71c254.8,1.75,511.55,6.19,766.11,17.95.67-38,2-76,2.66-113.94a5.42,5.42,0,0,0-.68-3.36,6.13,6.13,0,0,0-3.2-1.82l-24.28-7.59a140.73,140.73,0,0,1,37.08-10.41c2-26.31,4.65-54.55,6.61-80.86.65-8.35-.57-19.31-9-21.29l13.63-18.78-18.87-9.72c12.76-9,14.36-26.42,14.94-41.61C1411.88,332.94,1410.32,306.14,1411.18,280.87Z"/><g class="cls-17"><path class="cls-13" d="M1447.79,446.58C1397,425.52,1340.49,417,1286.71,406c-56.4-11.51-116.23-15.15-173.81-15.77C995.31,389,878.55,418.77,764.11,441.37c-31.5,6.22-63.42,9.21-95.16,13.82-28.28,4.25-59.28,12.33-87.53,4-.6-.18-1.58.74-.72,1,18.46,5.71,38.74,3.92,57.63,1.22,26.86-3.84,53.58-7.73,80.53-11,57.61-6.9,114.06-22.44,171.2-32.22,60.33-10.39,121.74-21.83,183.08-24.66a957.65,957.65,0,0,1,182.24,9.53c31.5,4.61,62.41,12.59,93.6,18.88,32.9,6.63,65.75,13.81,96.89,26.24C1446.85,448.53,1449,447.11,1447.79,446.58Z"/><path class="cls-13" d="M1441.28,475.67c-17.86-11.78-40.15-15.44-60.38-22a829,829,0,0,0-85.42-22.49c-55.67-11.51-112.09-19.08-169.12-18.23C1008.88,414.72,894.13,444,779,463.36c-32.87,5.5-66.1,12.4-99.52,13.81-34.78,1.47-69.43-2.49-104.29-1.43-.57,0-.14,1,.32,1,29.35,1.18,58.77,3.07,88.17,3,29.93,0,58.92-4.81,88.34-9.55C809,461,865.6,450.31,922.34,440c55.4-10.08,111.15-19.12,167.58-22.62,59.69-3.73,117.31,1.88,176.09,12.38a941.17,941.17,0,0,1,97,22.63c25,7.29,56.1,13,77.88,27.23C1443.22,481.2,1443,476.78,1441.28,475.67Z"/><path class="cls-13" d="M1456,505.37c-101.13-46-217.6-76.84-330.15-70-27.46,1.68-54.68,6.37-82,9.2-28.73,2.9-57.63,5.25-86.19,10.32s-56,12.27-84.44,16.11c-27.48,3.75-54.27,11.16-81.73,14.59a926.33,926.33,0,0,1-101.25,7.51c-34.42.53-68.78-2.86-103.21-2.51-.83,0-1.67,1.7-.55,1.72,29.71.63,59.38,2.84,89.09,3.32s59.85-2.67,89.8-5c28.58-2.31,55.42-8.29,83.48-13.26,25.54-4.61,51.09-7.85,76.61-13.19,56.55-11.83,114.2-16.11,171.54-23,58.27-6.9,118.19-3.06,175.53,8.66,63.23,12.89,121.76,36.82,182.24,57.86C1455.83,508.1,1457.22,505.94,1456,505.37Z"/><path class="cls-13" d="M1437.59,528.87c-97.1-39.62-195.24-78.26-302.78-72.6-28.49,1.49-56.81,5-85.13,8.19-27.8,3.18-55.52,5.55-83,11s-55.18,12.66-83,18c-27,5.18-54.58,8.31-82,11.31-25.11,2.74-50,3.17-75.15,4.19a125.55,125.55,0,0,0-25.64,2.9,47.68,47.68,0,0,0-12.09,4.6c-1.84,1.06-9.58,5.52-8.79,8a3.6,3.6,0,0,0,1.61,1.73c8.64,5.45,17.26,6.7,27.53,6.6a655.08,655.08,0,0,1,68.21,1.82c51,4.79,102.44,8.66,153,16.46,51.83,8,104,17.7,155.26,28.73,48.74,10.52,95.64,18.87,145.68,20.71,54.77,2.12,109.55,1.57,162.8-12.43,3.47-.92-1-4.26-3.36-3.63-51.49,13.21-104.4,13.94-157.31,12-51.23-1.94-99.48-10.45-149.46-20.9-47.33-9.9-95.41-18-143.19-25.62-48.84-7.78-98.28-10.52-147.43-15.65a520.4,520.4,0,0,0-67.9-3.78c-6.84.19-15.82,2.14-23.24,1.13-3.5-.48-21.29-5.34-17.41-10.15s10.25-6.19,16-7.78c16.32-4.61,34-3.2,50.75-3.5a678.6,678.6,0,0,0,69.62-6c47.88-5.87,94.21-16.25,141.49-25.59C1011.42,469,1062.08,465,1111.61,461c58.13-4.72,113.84-.53,170,14.64,53,14.27,103.45,35.43,154.3,55.38C1437.85,531.74,1440,529.88,1437.59,528.87Z"/><path class="cls-13" d="M1423.51,592.07c-26.33,4.4-50.13,16.65-76.3,21.5-27.77,5.16-56.45,6.22-84.65,6.91s-56.86.21-84.87-4.35-55.86-11.74-83.79-17.26-55.71-8.29-83.65-12.57-55.5-12.39-83.17-18.67c-23.49-5.32-47.21-9.21-71.39-8.66-29.43.63-58.13,4.29-87.63,2.31-28.27-2-59.23-3-86.54-10.73-13-3.66-24.28-10.57-36.35-16.11S619.61,523.11,620.28,508c0-1.19-2.71-1.54-2.78-.34-1,15.81,12.9,22.16,25.88,28.26,19.58,9.21,36.56,17.8,58.49,20.88a800,800,0,0,0,82.26,7.62c33,1.2,65.83-5,98.8-1.7,30.88,3.1,60.64,12.1,90.64,19.33,27.91,6.7,56.14,9.21,84.44,13.67,59.08,9.49,115.73,27.95,176.06,29.21a672.67,672.67,0,0,0,99.93-4.6c32.15-4.19,60.57-18.67,92.17-24.24C1430.22,595.21,1426.24,591.61,1423.51,592.07Z"/><path class="cls-13" d="M1432.92,617.23c-50.06,23.67-105.34,28.11-160.4,26s-109.82-7.41-164-14.62c-57.63-7.64-112.31-22.35-168.38-36.6-52.43-13.35-103.59-15-157.55-15.14-33.13,0-66.6.39-99.5-3.85s-65.31-12.77-97.15-22.69c-.91-.28-1.8.62-.65,1,52.31,18.3,105.34,26.77,160.89,27.76,64,1.17,127-1,189.42,15.19,54.68,14.18,108,29.1,164.18,37,55.07,7.71,110.73,13,166.17,15.63,58.47,2.81,117.72-1,171.09-26.08C1440.61,619.19,1435.43,616,1432.92,617.23Z"/><path class="cls-13" d="M990,683.76c-14.82-3.43-25.25-14.39-37.39-22.45a228,228,0,0,0-44.46-22.23c-31.67-12.09-66.39-17-99.88-22.05-35.39-5.3-71.2-9.58-105.84-18.65s-67.37-20.71-103.6-20.3c-.57,0-1.1,1.22-.4,1.24,35.57,1.59,68.8,13.58,102.73,22.86,34.54,9.44,70.24,13.81,105.65,19.2,36.44,5.52,74.21,11,108.11,25.66a207.86,207.86,0,0,1,39.94,21.85c10.17,7.45,20.52,17.49,33.75,19C990.52,688.11,992.22,684.26,990,683.76Z"/><path class="cls-13" d="M958.37,680.3c-29.5-8-58-18.92-87.34-27.27S812,640.83,781.78,637.4A554.38,554.38,0,0,1,686.28,619c-27.39-8.08-55.66-17.47-84.65-17.12-.65,0-1,.71-.22.78,30.88,2.76,58.92,11.35,88.37,20.16s59.85,13.56,90.8,17.15c29.95,3.5,59.64,7.39,88.58,15.68S927,674.92,956.5,682.9C958.56,683.55,961.14,681,958.37,680.3Z"/><path class="cls-13" d="M714.84,662.76c-28.37-22.53-69.71-30.86-105.6-32.57-1.29,0-2.4,2.63-1,2.74a251,251,0,0,1,105.65,31.42C714.67,664.9,715.46,663.27,714.84,662.76Z"/><path class="cls-13" d="M1287.07,307.43c-3.68-8.75-13-10.61-22-11.76-21.93-2.85-43.4-5.52-64.64-11.83-40.48-12-79-29.35-121.74-32-2.22-.14-1.89,2.3,0,2.53,58.63,5.22,111,35.17,169.36,42.67,6.18.79,38.64,2,24.9,14.44-9.1,8.21-30.67,9.53-42.64,11.18a585.75,585.75,0,0,0-80.92,17.11c-29,8.17-59,13.37-88.29,20.53a556.76,556.76,0,0,1-92.41,14.94c-61.77,4.6-123.68,6.72-185.52,9.94-32.66,1.7-65.58,4.24-97.75,10.38-33.71,6.54-66.63,16.37-100.55,21.89-2.4.39-.15,2.53,1.51,2.3,49.22-7.55,96.6-22.6,146.3-27.78,48.07-5,96.57-5.48,144.84-7.6,47-2,95.5-2.67,141.87-10.79,22.79-4,45.13-10,67.59-15.38,23.39-5.57,47-9.64,70.1-16.29a480.92,480.92,0,0,1,71.24-15.15c20.69-2.72,40.7-6.63,58.28-18.12A1.22,1.22,0,0,0,1287.07,307.43Z"/><path class="cls-13" d="M1373.43,283.75c-39.48-15.36-78.6-30.87-118.84-44.29-1-.3-2.18,1.84-1.2,2.3,33.37,14.3,68,25.94,101.72,39.52,13.41,5.41,27.27,10,40.08,16.71,9.89,5.18,28.47,15.52,28.37,28.27,0,17.84-39.17,19.68-52.43,20.46-33.09,2-65.93,2-99,5.69-76,8.52-151.55,20.37-227.63,28.56C969.12,389.12,893.7,396.65,818,401.44c-80.84,5-162.6,9.94-239.59,36.16-.6.18-.82,1.45,0,1.17,77.13-24.95,158.39-30.15,239-34.43,83.38-4.44,166.36-13.4,249.34-22.26S1232,358,1315.18,352.73c27-1.72,55.06.62,81.64-5.27,10.92-2.3,28.27-6.91,30.5-19.63C1431.41,304.62,1389.25,289.91,1373.43,283.75Z"/><path class="cls-13" d="M1268.23,374.25c25.52-1.42,50.57,5.46,76,5.09,15.9-.23,30.86-5.64,46-9.51,16.76-4.3,35.36-5.45,50.85-13.37.55-.28-.26-.87-.65-.76-21.71,6.33-44,10.17-65.81,16.11a138.56,138.56,0,0,1-54,4c-23.58-2.47-60.16-11.51-80.75,4.6-.81.64.67,1.5,1.15,1.63,31.12,8.93,63.44,6.31,95.19,10.48,34.55,4.6,67,17.47,100.19,27.11,1.94.58,1.53-1.59,0-2.05-35.62-10.47-70.81-24.42-108.31-27.87-20.9-2-42-1.36-62.82-4.21-3.68-.49-20.7-1.73-19.34-6.15C1247.19,375.36,1265,374.41,1268.23,374.25Z"/><path class="cls-13" d="M1226.72,312.84c-5.7-13.81-33.28-16.11-45.9-18.55-32-6.4-60.45-22.05-91-32.57-1.56-.53-3.85,1.33-1.68,2.18,23.94,9.6,47.69,20.44,72.35,28.27,14.37,4.6,29.79,5.92,44.29,10.36,3.74,1.15,9,2.3,12,4.86,3.93,3.29,5.06,1.19,1.82,5.5-1.74,2.3-4.21,2.55-6.72,3.52-12,4.6-26.15,5.82-39,6.72-24.46,1.73-49,.16-73.52.6-55.3,1-108.86,15.93-163.42,23a1668.4,1668.4,0,0,1-166.72,12.5A575.85,575.85,0,0,0,678,368.91c-13.4,2.51-26.86,4.75-40.22,7.37-15.27,3-30.69,7.37-46.39,6.9-1.46,0-1.61,1.48,0,1.52,22.05.81,44.74-6.21,66.24-10,28.37-5,56.31-10.5,85.18-12.15,58.44-3.39,116.55-5,174.77-11.21s115.18-22.19,173.81-24.79c44.79-1.91,92.46,5.84,134.67-12.55A1,1,0,0,0,1226.72,312.84Z"/><path class="cls-13" d="M1096.19,284.05c-21.35-14.23-45.17-24.91-68.63-35.43-1.75-.78-2.78,2.83-1.27,3.5,23.08,10.33,46.59,20.72,67.65,34.73,3.48,2.31,9.58,5.53,11.64,9,7.78,13.65-4.79,12.13-10.75,11.76-9-.58-17.86-2.3-26.93-2.92-51.21-3.09-102.42,2.85-152.94,10.42-27,4.05-53.72,8.63-80.77,12.64-26.58,3.94-53,4.35-79.82,4.6-51.5.42-101.42,13.08-152.72,14.5-.79,0-1.13,1.71-.29,1.75,45.49,3.2,91-11.25,136.27-12.4,22.51-.58,45.06.18,67.52-1.38,24.15-1.71,48.16-6.33,72-10.13,49.44-7.9,99-15.75,149.25-17a395.63,395.63,0,0,1,61.36,2.88c7.18.94,21,3.75,23.94-5.3S1102.54,288.28,1096.19,284.05Z"/><path class="cls-13" d="M955,261a99.86,99.86,0,0,0-35.12-13.45c-2.73-.39-2.39,2.47,0,2.81,14.58,2.1,74,29.81,36.22,38.35-44.79,10.13-93.37,6.91-139.07,9.42-44,2.3-87.19,11-131.1,14.15-14.82,1.08-29.21,2.44-43.91,4.42-15.17,2.07-38.47,7.16-51.61-2.74-.55-.41-1.73,0-1,.62,8.73,6.91,21.23,6.7,31.93,6.2,18.39-.86,36.46-4.61,54.85-5.53,30-1.61,59.85-5.66,89.56-9.78,31.13-4.28,62.49-5.46,93.9-6.49,27.87-.92,55.83-1.82,83.48-5.39,7.78-1,29.88-1.56,30.48-13.21C974,272,961.12,264.62,955,261Z"/><path class="cls-13" d="M820.8,271.73C815.37,251,778.09,251.59,762.41,243c-1.51-.83-2.13,2.78-.88,3.52,7.18,4.3,15.89,5.87,23.94,8.17,9,2.58,29.23,6.75,32.41,17.1,5.37,17.41-44.65,16.12-53.91,16.3-17.24.25-34.5-1.08-51.71-.23-19.59,1-39.34,1.77-58.83,4-15.61,1.82-31.72,7.39-47.45,3.66-.81-.19-.91,1.33-.24,1.56,16.76,5.85,35.91-.87,53.1-2.3,20.62-1.79,41.57-3.61,62.25-3.68,23.63,0,47.26,1.93,70.84-.81C802.37,289,824.71,286.62,820.8,271.73Z"/><path class="cls-13" d="M1437.52,546.66c-32.44-13.81-69.62-21.78-104.19-29.09-37.33-7.92-74.6-16.12-112.52-20.84-41.92-5.2-82.79-1-124.76-2.3-35.6-1.08-71.51-3.5-106.87,2.79-14.1,2.51-36.22,6.7-46.76,16.92s9,13.35,16.31,14.52c41.56,6.54,83.26,10.31,124.49,19.27,39.38,8.56,78.36,19.12,118.31,25.09,43.1,6.44,87.7,6.9,131.29,6.74,23.3,0,56.74,2.56,75.75-12.94,1.13-.92-1.15-2-2-1.38-18,14.11-49.44,12.13-71.34,12.13-34.55,0-69.31-.78-103.76-3.52-69.6-5.52-136.08-29.16-204.93-39.29-17.24-2.53-34.53-4.6-51.81-6.91-7.18-.94-38.88-1.68-26.7-13,10.37-9.65,34.41-13.81,48.15-15.56,36.51-4.77,72.23-2.14,108.79-1.73,35.36.42,70.21-2.3,105.53,1.36,39.55,4.24,78.28,12.68,117.12,20.85,35.72,7.51,74.21,15.4,107.73,29.65C1437.92,550.62,1440.75,548,1437.52,546.66Z"/><path class="cls-13" d="M1407.3,555.73c-25.37-1.24-50.77,2.42-76.1,3.43-27.46,1.08-54.25-2-81.4-6-25.26-3.72-50.28-8.28-75.39-13.23-11.73-2.3-23.39-5-35.29-6.54-6.18-.8-12.4-1.31-18.58-2.14-5.1-.69-16.09-.76-19.7-4-6.75-6,4.52-5.71,10.1-6a150.94,150.94,0,0,1,18.17.48c12.26.86,24.61,1.59,36.78,3.27,25.23,3.5,49.94,7.9,75.39,9.74,53.41,3.91,106.79,7.18,160.16,11.74,2.27.18,2.68-1.91.41-2.3-28.11-5.64-58.42-5.85-87-8-28.21-2.07-56.48-2.78-84.64-5.22-26.33-2.3-52-8.15-78.28-10.34-20.78-1.75-44.1-5.73-63.85,2.56a1.25,1.25,0,0,0-.65,1.68,1.31,1.31,0,0,0,.65.62c20.16,9.37,42.42,8.86,64,12.89,28.72,5.34,57.45,11.51,86.35,16,27.29,4.26,54.8,8.43,82.52,8,28.73-.44,57.82-3.31,86.55-5.22C1409.15,557.06,1408.45,555.78,1407.3,555.73Z"/></g><path class="cls-18" d="M798.44,349l.41,3.2a6.56,6.56,0,0,1-5.82,7.31h-.21A6.65,6.65,0,0,0,787,367q3.72,25.89,7.38,51.79a6.62,6.62,0,0,1-5.82,7.36l-8.74,1.2a6.77,6.77,0,0,1-7.71-5.5Q768.08,396,764,370.11a6.78,6.78,0,0,0-7.77-5.5h-.15a6.78,6.78,0,0,1-7.76-5.43l-.53-3.2a6.6,6.6,0,0,1,5.68-7.51q18.6-2.76,37.25-5.13a6.8,6.8,0,0,1,7.68,5.67Z"/><path class="cls-18" d="M826.33,355.93h0a1.79,1.79,0,0,0,1.84,1.73,1.86,1.86,0,0,0,1.4-.65,14.67,14.67,0,0,1,7.54-5.15,1.83,1.83,0,0,1,2.3,1.09,1.44,1.44,0,0,1,.09.4l2.16,19.73a1.72,1.72,0,0,1-1.51,1.91,16.9,16.9,0,0,0-7,2.3,6.34,6.34,0,0,0-3.06,4.49,69.87,69.87,0,0,0,.81,12.43l2.87,24.54a1.79,1.79,0,0,1-1.6,1.93q-8.84,1-17.67,2a1.8,1.8,0,0,1-2-1.52h0q-3.93-31.43-8.14-62.89a1.76,1.76,0,0,1,1.54-2h0q9.18-1.1,18.36-2.09a1.8,1.8,0,0,1,2,1.53A1,1,0,0,1,826.33,355.93Z"/><path class="cls-18" d="M866.39,340.62v.12a5.34,5.34,0,0,1-5,5.71q-6,.53-12,1.1a5.42,5.42,0,0,1-6-4.72h0a5.34,5.34,0,0,1,4.78-5.8l12.12-1.1A5.46,5.46,0,0,1,866.39,340.62Zm1.34,14.69q2.58,28.11,5.19,56.21a5.33,5.33,0,0,1-4.95,5.71l-11.09,1a5.43,5.43,0,0,1-6-4.6l-6-56.14a5.34,5.34,0,0,1,4.78-5.8l12-1.09a5.44,5.44,0,0,1,6,4.69Z"/><path class="cls-18" d="M922.58,371.49q-7.2.39-14.29.85a3.22,3.22,0,0,1-2.39-.83l0,0a3.28,3.28,0,0,1-1.08-2.4c-.06-5.1-.44-8.31-1.23-9.66a3.2,3.2,0,0,0-4.34-.72,3,3,0,0,0-.86.88c-.64,1.49-.41,5.91.65,13.29a2.3,2.3,0,0,1,0,.26l1.33,21.32a15.1,15.1,0,0,0,1.46,7.62,3,3,0,0,0,2.95,1.59,2.89,2.89,0,0,0,2.82-2.05c.58-1.73.54-5.51-.12-11.31a3.32,3.32,0,0,1,.75-2.5l.27-.31a3.28,3.28,0,0,1,2.29-1.16q6.3-.39,12.59-.74a3.29,3.29,0,0,1,3.45,3.22q.12,4.33-.15,8.66a18.58,18.58,0,0,1-3.08,8.4,19,19,0,0,1-7.24,6.81l-.38.18a36.06,36.06,0,0,1-25.92,1l-.43-.17a16.67,16.67,0,0,1-7.88-7.38,3.39,3.39,0,0,1-.18-.39A45.85,45.85,0,0,1,878,388.13c0-.07,0-.15,0-.22l-1.21-13.61a1.1,1.1,0,0,0,0-.18,37.68,37.68,0,0,1,.44-14.62,3.09,3.09,0,0,1,.22-.67,17.12,17.12,0,0,1,7.19-8,29.44,29.44,0,0,1,14.58-4.46,30.16,30.16,0,0,1,15.1,2.44,17.11,17.11,0,0,1,8.6,7.8,4,4,0,0,1,.21.47,42,42,0,0,1,2.58,10.85A3.29,3.29,0,0,1,922.58,371.49Z"/><path class="cls-18" d="M977.81,347.78Q974.36,358.9,971,370a2.77,2.77,0,0,0,0,1.66q5.67,17.78,11.13,35.58a2.86,2.86,0,0,1-2,3.57,3.34,3.34,0,0,1-.77.12l-14.37.39a3,3,0,0,1-3-2.14q-2-7.39-4-14.73a1.4,1.4,0,0,0-1.61-1.15,1.35,1.35,0,0,0-1.19,1.54h0l.55,13.95A2.9,2.9,0,0,1,953,411.7c-5.15.21-10.3.42-15.44.67a2.9,2.9,0,0,1-3.11-2.66v0l-4.09-75.76a3,3,0,0,1,2.85-3c5.48-.25,11-.5,16.47-.71a3,3,0,0,1,3.11,2.76h0c.34,7.85.65,15.7,1,23.55a1.35,1.35,0,0,0,2.64.32c1.08-3.43,2.13-6.9,3.21-10.29a3,3,0,0,1,2.77-2l12.48-.37a2.91,2.91,0,0,1,3.05,2.77A2.68,2.68,0,0,1,977.81,347.78Z"/><path class="cls-18" d="M1029.78,343.52a1.66,1.66,0,0,1,1.67,1.63,1.23,1.23,0,0,1,0,.19q-3.23,23.32-6.27,46.61-1.46,11.52-2.39,15.7a16.57,16.57,0,0,1-3.26,6.91,13.3,13.3,0,0,1-6.37,4.05,47.47,47.47,0,0,1-12.85,1.38l-11.25.18a1.61,1.61,0,0,1-1.68-1.56h0l-.17-7.53a1.62,1.62,0,0,1,1.61-1.61,19.7,19.7,0,0,0,4.78-.55,2,2,0,0,0,1.39-2.16,65.15,65.15,0,0,0-1.43-6.91q-6.18-27-12.69-53.86a1.59,1.59,0,0,1,1.22-1.92,2.2,2.2,0,0,1,.36,0q8.36-.21,16.76-.3a1.66,1.66,0,0,1,1.65,1.36q2.61,15,5.12,29.92a1.66,1.66,0,0,0,3.31-.13h0q1-14.89,2.13-29.77a1.64,1.64,0,0,1,1.65-1.47Q1021.42,343.48,1029.78,343.52Z"/><path class="cls-18" d="M1103.5,335.74l-.32,6.2a5.18,5.18,0,0,1-5.5,4.81l-3.23-.14a5.21,5.21,0,0,0-5.51,4.87h0l-2.25,55.24a5.2,5.2,0,0,1-5.46,4.86l-11.71-.44a5.15,5.15,0,0,1-5.12-5.2h0l1.49-55.24a5.19,5.19,0,0,0-5.15-5.23h-3.19a5.15,5.15,0,0,1-5.22-5.06v-.07c0-2.05,0-4.12.12-6.19a5.18,5.18,0,0,1,5.34-5h0q20.33.42,40.7,1.29A5.17,5.17,0,0,1,1103.5,335.74Z"/><path class="cls-18" d="M1129.59,348.7h0a1.76,1.76,0,0,0,1.49,2,1.84,1.84,0,0,0,1.5-.41,15,15,0,0,1,8.36-3.84A1.85,1.85,0,0,1,1143,348a1.67,1.67,0,0,1,0,.32q-.75,9.92-1.46,19.79a1.81,1.81,0,0,1-1.85,1.64,16.85,16.85,0,0,0-7.18,1,6.49,6.49,0,0,0-3.83,4.1,68.5,68.5,0,0,0-1.46,12.36q-.82,12.31-1.63,24.65a1.78,1.78,0,0,1-1.91,1.63q-8.87-.52-17.74-1a1.76,1.76,0,0,1-1.73-1.8v0q1.63-31.69,3.28-63.39a1.84,1.84,0,0,1,1.94-1.68c6.13.32,12.28.64,18.41,1a1.79,1.79,0,0,1,1.72,1.89S1129.6,348.66,1129.59,348.7Z"/><path class="cls-18" d="M1185.59,385.85c-6.37-.57-12.71-1.15-19.15-1.68l-1.15,14.44a14.62,14.62,0,0,0,.19,5.89A2.7,2.7,0,0,0,1168,406a3.3,3.3,0,0,0,3.42-1.45c1-1.75,1.65-6.24,1.82-13.44l2.15-1.87c4.6.42,9.22.83,13.82,1.29a4.94,4.94,0,0,1,4.55,5.34v0h0a42.5,42.5,0,0,1-1.82,9.39,19.66,19.66,0,0,1-4.6,6.72,19.28,19.28,0,0,1-8.21,4.93,32,32,0,0,1-11.78.87,36.12,36.12,0,0,1-11.78-2.85,18.27,18.27,0,0,1-11.11-13.15,48,48,0,0,1-.12-13l1.25-16.28a33,33,0,0,1,3.73-15.26,17,17,0,0,1,9.08-7.13,36.35,36.35,0,0,1,28.87,3,18.1,18.1,0,0,1,7.61,9.39,37.39,37.39,0,0,1,.82,15.29h0a9.08,9.08,0,0,1-10,8Zm-11.71-12c.17-1.63.31-3.24.46-4.88a22.26,22.26,0,0,0,0-6.72,2.4,2.4,0,0,0-2.4-1.73c-1.59-.13-2.57.21-2.94,1a24.25,24.25,0,0,0-1.18,6.91l-.43,4.88Z"/><path class="cls-18" d="M1220.35,380.68q-7-.8-14-1.52a4.66,4.66,0,0,1-4.15-5h0a29.63,29.63,0,0,1,3.26-11.72,17.42,17.42,0,0,1,8.64-6.58,31.93,31.93,0,0,1,15.66-1.5c7.49.88,13,2.79,16.45,5.69a14,14,0,0,1,5.6,9.78,130.59,130.59,0,0,1-1.94,21.89l-3.38,24.54A9.28,9.28,0,0,1,1236,424l-5.36-.79a6,6,0,0,1-5.34-6.58h0a13.58,13.58,0,0,1-5.7,4.76,14.71,14.71,0,0,1-7.57.95,18.74,18.74,0,0,1-9.91-4.1c-2.89-2.3-4-6.9-3.23-13.56.19-1.81.41-3.63.6-5.45q.81-7.5,3.66-10c1.89-1.61,6.3-3.29,13.29-5,7.44-1.79,11.51-3.08,12.14-3.93a13.65,13.65,0,0,0,1.46-5.44,17.06,17.06,0,0,0,0-6.9,3,3,0,0,0-2.61-1.91c-1.49-.16-2.4.16-3,1a48.59,48.59,0,0,0-1.94,11.9Zm7.59,10.12a15.62,15.62,0,0,0-6.77,5.27,21.86,21.86,0,0,0-1.68,6.91,19.09,19.09,0,0,0-.12,6.74,2.85,2.85,0,0,0,2.66,1.85,2.73,2.73,0,0,0,2.77-.88,18.47,18.47,0,0,0,1.39-6.12q1-6.93,1.82-13.77Z"/><path class="cls-18" d="M1286.62,356.46l-1,5.94a2.32,2.32,0,0,0,2,2.58l1.3.2a2.32,2.32,0,0,1,2,2.61l-1,6a2.37,2.37,0,0,1-2.71,1.88l-1.24-.18a2.37,2.37,0,0,0-2.68,1.91q-2.68,16.58-5.34,33.17c-.7,4.35-.84,6.91-.46,7.39s1.51.85,3.57,1.24a2.32,2.32,0,0,1,1.89,2.6l-1,6.22a2.39,2.39,0,0,1-2.71,1.89l-6.22-.93a67.45,67.45,0,0,1-10.27-2.07,11.22,11.22,0,0,1-5.08-3.4,8.92,8.92,0,0,1-2.25-5.16,82.53,82.53,0,0,1,1.27-12.64q2.4-15.72,4.62-31.44a2.31,2.31,0,0,0-2-2.55h0a2.33,2.33,0,0,1-2-2.56l.87-6a2.38,2.38,0,0,1,2.68-2h0a2.37,2.37,0,0,0,2.65-2l.87-5.94a2.38,2.38,0,0,1,2.68-1.93q8.79,1.2,17.59,2.49a2.31,2.31,0,0,1,2,2.6Z"/><path class="cls-18" d="M748.1,487.32l.45,3.36a6.5,6.5,0,0,1-5.75,7.25h-.19a6.53,6.53,0,0,0-5.74,7.33h0l7.54,51.91a6.49,6.49,0,0,1-5.69,7.29h0L730,565.7a6.72,6.72,0,0,1-7.67-5.41q-4.08-25.95-8.16-51.91a6.7,6.7,0,0,0-7.65-5.44h-.18a6.7,6.7,0,0,1-7.68-5.36l-.55-3.37a6.55,6.55,0,0,1,5.62-7.43q18.35-2.71,36.78-5.16a6.71,6.71,0,0,1,7.57,5.59S748.09,487.29,748.1,487.32Z"/><path class="cls-18" d="M775.72,494.18h0a1.8,1.8,0,0,0,1.86,1.71,1.84,1.84,0,0,0,1.4-.68,14.37,14.37,0,0,1,7.4-5.2,1.83,1.83,0,0,1,2.3,1.1,1.24,1.24,0,0,1,.09.38c.77,6.58,1.56,13.14,2.39,19.72a1.71,1.71,0,0,1-1.48,1.91,17,17,0,0,0-6.87,2.3,6.29,6.29,0,0,0-2.9,4.61,70.88,70.88,0,0,0,.89,12.43q1.55,12.25,3.06,24.54a1.73,1.73,0,0,1-1.45,2l-.18,0c-5.84.69-11.7,1.38-17.54,2.12a1.78,1.78,0,0,1-2-1.47v0q-4.35-31.56-8.64-63a1.79,1.79,0,0,1,1.58-2c6-.76,12-1.47,18.1-2.3a1.8,1.8,0,0,1,2,1.53A1.38,1.38,0,0,1,775.72,494.18Z"/><path class="cls-18" d="M837.3,520.86l-18.82,1.72L820,537a15.83,15.83,0,0,0,1.29,5.78,2.76,2.76,0,0,0,2.78,1,3.24,3.24,0,0,0,3.09-2,22.78,22.78,0,0,0,0-8.63l6.29-7.6,8.36-.73a5,5,0,0,1,5.51,4.46h0a42.62,42.62,0,0,1,0,9.58,19.1,19.1,0,0,1-3.19,7.41,18.38,18.38,0,0,1-7.06,6.31,30.74,30.74,0,0,1-11.32,2.94,35.22,35.22,0,0,1-12-.69,18.47,18.47,0,0,1-13.38-11,49.57,49.57,0,0,1-2.58-12.73l-1.87-16.29a33,33,0,0,1,.67-15.66,16.68,16.68,0,0,1,7.47-8.58,31.05,31.05,0,0,1,13.07-4,32.08,32.08,0,0,1,15.59,1.84,18.62,18.62,0,0,1,9.19,7.87,37.72,37.72,0,0,1,3.76,14.85h0a8.91,8.91,0,0,1-8.13,9.71Zm-13.62-9.72-.48-4.88a22.87,22.87,0,0,0-1.3-6.63,2.4,2.4,0,0,0-2.58-1.26c-1.51.14-2.4.67-2.66,1.54a24.62,24.62,0,0,0,.17,6.91c.17,1.63.36,3.26.53,4.88Z"/><path class="cls-18" d="M867,509.69l-12.23.92a3.07,3.07,0,0,1-3.35-2.71l-.15-1.5a29.68,29.68,0,0,1,.89-12.11,17,17,0,0,1,7.18-8A30.63,30.63,0,0,1,874.24,482c7.44-.51,13.14.36,17.07,2.57a14.26,14.26,0,0,1,7.37,8.57,131.15,131.15,0,0,1,2.4,21.82q.78,13.07,1.6,26.15a7.53,7.53,0,0,1-7.18,7.85l-6.85.43a6.07,6.07,0,0,1-6.56-5.49h0a13.08,13.08,0,0,1-11.83,8,18.87,18.87,0,0,1-10.48-2.3Q855,546.93,854,536.83c-.17-1.84-.32-3.66-.48-5.48-.43-5,0-8.47,1.62-10.42s5.49-4.38,12-7.28c6.9-3.13,10.59-5.15,11-6.1a13.2,13.2,0,0,0,.36-5.59,17.69,17.69,0,0,0-1.34-6.77,2.9,2.9,0,0,0-2.9-1.38c-1.49.09-2.37.6-2.66,1.52a32.83,32.83,0,0,0,.17,9Zm13.07,15.47a3,3,0,0,0-3.28-2.81,3.08,3.08,0,0,0-2.77,2h0a22.51,22.51,0,0,0-.31,6.9,18.55,18.55,0,0,0,1.24,6.66,2.85,2.85,0,0,0,2.92,1.31,2.68,2.68,0,0,0,2.54-1.36,18,18,0,0,0,.17-6.26Z"/><path class="cls-18" d="M948.31,500.78l-9.57.35L932.8,496a13.38,13.38,0,0,0-.74-4.12c-.41-.81-1.37-1.18-2.9-1.11a3.33,3.33,0,0,0-2.71,1.24,5.34,5.34,0,0,0-.76,3.46,16.33,16.33,0,0,0,.69,4.6,7.26,7.26,0,0,0,2.9,3,64.39,64.39,0,0,0,9.58,4.6c6.44,2.65,10.65,5.23,12.71,7.71a18.16,18.16,0,0,1,3.33,11.08,27.17,27.17,0,0,1-1.8,12.38,14.69,14.69,0,0,1-7.18,6.68,32.24,32.24,0,0,1-12.4,2.73,36.54,36.54,0,0,1-14-1.79,15.12,15.12,0,0,1-8.28-6.15,27.69,27.69,0,0,1-2.9-12.38c0-1.08-.14-2.14-.19-3.22l14.6-.74,4.67,4.1a21.56,21.56,0,0,0,1.05,6.9,2.82,2.82,0,0,0,2.93,1.5,4,4,0,0,0,3.11-1.22,7.55,7.55,0,0,0,.69-4.6,9.47,9.47,0,0,0-1.43-6,95.77,95.77,0,0,0-12.88-6.58c-6.52-3.06-10.56-5.89-12.12-8.56a21.6,21.6,0,0,1-2.68-9.65,23.4,23.4,0,0,1,1.6-11.92,14.42,14.42,0,0,1,7.4-6.28,35.77,35.77,0,0,1,12.64-2.65A38.39,38.39,0,0,1,940,480.25a19.41,19.41,0,0,1,7.9,4.19,11.88,11.88,0,0,1,3.45,5,34.73,34.73,0,0,1,.83,7.39h0A3.93,3.93,0,0,1,948.31,500.78Z"/><path class="cls-18" d="M1009.67,483.43q.15,28.24.31,56.49a5.32,5.32,0,0,1-5.41,5.24h0l-10.46.12a5.33,5.33,0,0,1-5.49-5.13c0-.1,0-.2,0-.3h0a14.7,14.7,0,0,1-5.29,5.13,16.32,16.32,0,0,1-7.42,1.84,17.67,17.67,0,0,1-8-1.43,11,11,0,0,1-4.79-4.16,15,15,0,0,1-2-5.53c-.31-1.93-.55-5.77-.75-11.51q-.58-20-1.24-39.89a5.31,5.31,0,0,1,5.24-5.4h0l11.11-.27a5.33,5.33,0,0,1,5.55,5.11v0q.44,20.18.82,40.31a45.88,45.88,0,0,0,.69,9.21c.36,1,1.29,1.42,2.78,1.4s2.51-.53,2.8-1.54a54.9,54.9,0,0,0,.29-9.76q-.36-19.89-.67-39.8a5.34,5.34,0,0,1,5.36-5.34h11.11A5.37,5.37,0,0,1,1009.67,483.43Z"/><path class="cls-18" d="M1039.31,480.14h0a1.74,1.74,0,0,0,1.55,1.93,1.85,1.85,0,0,0,1.52-.51,14.69,14.69,0,0,1,8-4.25,1.8,1.8,0,0,1,2.15,1.77c0,6.6-.22,13.23-.34,19.84a1.75,1.75,0,0,1-1.72,1.73,16.68,16.68,0,0,0-7.18,1.4,6.37,6.37,0,0,0-3.47,4.17,68.92,68.92,0,0,0-.77,12.43c0,8.24-.17,16.48-.24,24.72a1.78,1.78,0,0,1-1.82,1.72h-17.67a1.79,1.79,0,0,1-1.82-1.74V479.86a1.79,1.79,0,0,1,1.82-1.75h18.2a1.77,1.77,0,0,1,1.8,1.73A1.53,1.53,0,0,1,1039.31,480.14Z"/><path class="cls-18" d="M1105.82,514.53q-14-.56-28-.95l-.43,14.48a15.52,15.52,0,0,0,.5,5.87,2.68,2.68,0,0,0,2.61,1.38,3.26,3.26,0,0,0,3.38-1.61,22.81,22.81,0,0,0,1.08-8.52l7.18-6.79,8.33.3a5,5,0,0,1,4.79,5.09h0a41.87,41.87,0,0,1-1.22,9.51,19.45,19.45,0,0,1-4.15,6.9,18.53,18.53,0,0,1-7.85,5.41,31.06,31.06,0,0,1-11.61,1.52,35.39,35.39,0,0,1-12-2.3,18.19,18.19,0,0,1-11.8-12.52,48.7,48.7,0,0,1-.86-12.92l.31-16.55a33.18,33.18,0,0,1,2.8-15.26,17,17,0,0,1,8.55-7.62,36,36,0,0,1,28.65,1.43,18.14,18.14,0,0,1,8.09,8.95,37.88,37.88,0,0,1,1.75,15.2Zm-21.33-11.65c0-1.63.12-3.27.16-4.9a22,22,0,0,0-.38-6.72,2.38,2.38,0,0,0-2.39-1.59c-1.51,0-2.4.37-2.85,1.19a25.56,25.56,0,0,0-.74,6.91l-.15,4.9Z"/><path class="cls-18" d="M1188.53,473.19q-3.15,37.49-6.34,75a3.32,3.32,0,0,1-3.59,2.92L1163.11,550a3.22,3.22,0,0,1-3.09-3.37v-.06l2-27.83a3.24,3.24,0,0,0-3.07-3.43h0a3.3,3.3,0,0,0-3.56,3l-2.06,27.83a3.29,3.29,0,0,1-3.53,3h0l-15.49-.92a3.23,3.23,0,0,1-3.13-3.33v0q2.14-37.58,4.33-75.17a3.33,3.33,0,0,1,3.54-3c5.46.3,11,.62,16.4,1a3.24,3.24,0,0,1,3.12,3.39v0L1157,493.79a3.23,3.23,0,0,0,3.09,3.4h.16a3.31,3.31,0,0,0,3.57-3q.84-11.5,1.67-22.74a3.32,3.32,0,0,1,3.57-3l16.4,1.2a3.27,3.27,0,0,1,3.12,3.43Z"/><path class="cls-18" d="M1245.78,495.31l-6.47,56.14a5.4,5.4,0,0,1-6,4.6l-10.44-1a5.29,5.29,0,0,1-4.82-5.76,2.17,2.17,0,0,1,0-.25h0a15,15,0,0,1-6,4.6,16.11,16.11,0,0,1-7.59,1,17.63,17.63,0,0,1-7.78-2.3,10.71,10.71,0,0,1-4.27-4.6,14.74,14.74,0,0,1-1.38-5.71q0-2.94.64-11.51,1.8-19.89,3.54-39.75a5.41,5.41,0,0,1,5.9-4.79h0l11.08,1a5.31,5.31,0,0,1,4.91,5.73h0l-4,39.94a46.41,46.41,0,0,0-.43,9.2c.24,1,1.1,1.57,2.58,1.71s2.59-.26,3-1.25a52.34,52.34,0,0,0,1.46-9.64q2.05-19.82,4.12-39.62a5.39,5.39,0,0,1,6-4.6l11.09,1.11A5.35,5.35,0,0,1,1245.78,495.31Z"/><path class="cls-18" d="M1270.22,492.75a5.8,5.8,0,0,1,5.2,6.42c0,.12,0,.23-.05.35h0a17.27,17.27,0,0,1,23.58-2,10.73,10.73,0,0,1,3.71,6.9,52.27,52.27,0,0,1-.77,12.55q-3,20.37-5.93,40.74a6,6,0,0,1-6.8,4.95l-9.2-1.17a5.85,5.85,0,0,1-5.19-6.49l5.43-40.31a41,41,0,0,0,.63-8.42c-.2-1-1-1.66-2.4-1.85a2.77,2.77,0,0,0-3.13,1.39,40.18,40.18,0,0,0-1.8,9.2q-2.54,19.58-5.12,39.13a6,6,0,0,1-6.69,5.05h0l-9.19-1.05a5.87,5.87,0,0,1-5.3-6.43l6.54-55a6,6,0,0,1,6.7-5.11Z"/><path class="cls-18" d="M1336.39,494.82l-1,6a2.31,2.31,0,0,0,1.94,2.55l1.27.21a2.31,2.31,0,0,1,1.94,2.55c-.31,2-.64,4-1,6a2.38,2.38,0,0,1-2.68,1.86l-1.22-.18a2.37,2.37,0,0,0-2.68,1.88q-2.67,16.62-5.34,33.2c-.7,4.35-.86,6.9-.46,7.38s1.46.86,3.55,1.25a2.29,2.29,0,0,1,1.86,2.55c-.33,2.1-.67,4.19-1,6.29a2.37,2.37,0,0,1-2.65,1.86l-6.23-.92a68,68,0,0,1-10.2-2.07,11.34,11.34,0,0,1-5-3.43,8.59,8.59,0,0,1-2.23-5.16,78.76,78.76,0,0,1,1.32-12.63q2.39-15.72,4.78-31.45a2.31,2.31,0,0,0-2-2.53h0a2.32,2.32,0,0,1-2-2.53c.31-2,.6-4,.89-6a2.38,2.38,0,0,1,2.65-1.94h0a2.38,2.38,0,0,0,2.66-1.91c.29-2,.57-4,.89-6a2.37,2.37,0,0,1,2.65-1.91q8.7,1.22,17.36,2.51A2.3,2.3,0,0,1,1336.39,494.82Z"/></g><path class="cls-19" d="M1923.7,972.09l-.12,113.9v1l-940.88-1-988.41-1H-6.3l.1-104.83a624.76,624.76,0,0,1,66.74-26.58C247,890.26,583.54,848,967.7,848q41.41,0,82,.65C1435.14,854.75,1763,903.46,1923.7,972.09Z"/><path class="cls-20" d="M1904,1019v-15h-12.49a31.5,31.5,0,0,0-4.1-10.88l7.95-8.7-11.09-10.11-7.49,8.22a31,31,0,0,0-8.78-3.62V968h-15v10.91a31,31,0,0,0-8.78,3.62l-7.49-8.22-11.09,10.11,7.95,8.7a31.5,31.5,0,0,0-4.1,10.88H1817v15h13.46a31.61,31.61,0,0,0,4.68,9.18l-9.5,10.4,11.09,10.11,9.93-10.89a31,31,0,0,0,6.34,2.29V1055h15v-14.91a31,31,0,0,0,6.34-2.29l9.93,10.89,11.09-10.11-9.5-10.4a31.61,31.61,0,0,0,4.68-9.18Zm-43,7a14,14,0,1,1,14-14A14,14,0,0,1,1861,1026Z"/><path class="cls-21" d="M201.62,937s-54.49,11.23-76.28-52.13H139s-17.23-27.88-13.68-71H139a85.32,85.32,0,0,1,16.55-78.11s23.24,35,28.69,65.43h35.86Z"/><path d="M266.32,775.72c75-4.79,59.91,64.27,59.91,64.27V975.58l-94.81.76c-48.5,0-58-15.87-58-49.45C173.39,881.32,191.35,780.51,266.32,775.72Z"/><path class="cls-21" d="M245.77,976.34a15.54,15.54,0,0,0,0-1.93v-136a28.31,28.31,0,0,1,56.59,1.47V949.7c0,10.85.15,19.62.4,26.64h51.05V779.88c0-36.68-35.21-75.45-71.95-75.45h5.42c-51.35,0-93,36.11-93,87.36V976.34Z"/><path class="cls-22" d="M240.7,976.89a6.57,6.57,0,0,0,6.59-6.58,6.28,6.28,0,0,0-.26-1.83,31.42,31.42,0,0,0-60.24,0,6.57,6.57,0,0,0,6.34,8.41Z"/><path class="cls-22" d="M359.18,976.89a4.81,4.81,0,0,0,4.69-5.88,31.45,31.45,0,0,0-61.56,0,4.83,4.83,0,0,0,3.69,5.77,4.71,4.71,0,0,0,1,.11Z"/><path class="cls-22" d="M331.93,745.18,221.21,746.5l-1.89-6-2.24-7.15-1.58-5-2.74-8.76-2.15-6.84L209,707.47,173.06,592.66a55.17,55.17,0,0,1,55-55h93.31a55.18,55.18,0,0,1,55,55L342.85,712.44l-1.43,5.14-1.93,6.88-1.76,6.3-1.4,5-1.56,5.55Z"/><path class="cls-21" d="M312.14,624.09c0,7.22,3.65,13.08,8.16,13.08s8.14-5.86,8.14-13.08-3.65-13-8.14-13S312.14,616.87,312.14,624.09Z"/><path class="cls-23" d="M255.12,717.58l.56,23a19.49,19.49,0,0,0,19.81,19.14h.69a19.49,19.49,0,0,0,18.88-20.08l-.63-22Z"/><path class="cls-21" d="M218.93,626.17c0,7.22,3.65,13.08,8.16,13.08s8.13-5.86,8.13-13.08-3.65-13.1-8.13-13.1S218.93,619,218.93,626.17Z"/><path class="cls-22" d="M332.19,687.8l-21.65-26c-12.82-14.86-57.63-14.86-70.42,0l-22.23,25.69a32.2,32.2,0,0,0-7.6,20.73v16.22A31.25,31.25,0,0,0,241.23,756h.05c11.25,0,21.57-23.24,27.14-30.85h13.11c5.57,7.61,15.71,30.85,27,30.85a31.3,31.3,0,0,0,31.05-31.55h0V708.25A31,31,0,0,0,332.19,687.8Z"/><path class="cls-24" d="M273.64,669.18h2.54c17.74.4,31.27,10.67,21.14,28.1-18.68,32.14-34.93,16-46.66,0S253.37,669.58,273.64,669.18Z"/><path d="M213.58,540.3l-46.76,3.57c-20.51,8.71-29.4,41.71-28.61,61.49l.27,6.54a97.76,97.76,0,0,0,14.88,47.7l4.73,7.63c3.54,5.72,12.8,6.14,17,.79C187,653,205.55,624.17,204.69,591.93,203.43,544.61,213.58,540.3,213.58,540.3Z"/><path d="M335.3,540.3l50.84,4.11c21.18,8.7,27.74,41.16,26.93,61l-.27,6.54a95.75,95.75,0,0,1-15.37,47.7l-4.68,7.32c-3.74,5.86-13.55,6.31-18,.81-12.3-15.14-31.19-43.77-30.29-75.8C345.78,544.61,335.3,540.3,335.3,540.3Z"/><circle class="cls-22" cx="213.15" cy="788.99" r="2.86"/><circle class="cls-22" cx="339.39" cy="834.48" r="2.29"/><circle class="cls-22" cx="317.07" cy="810.11" r="2.29"/><circle class="cls-22" cx="277.38" cy="791.86" r="2.29"/><circle class="cls-22" cx="339.54" cy="797.95" r="2.29"/><circle class="cls-22" cx="235.11" cy="866.18" r="4.84"/><circle class="cls-22" cx="207.18" cy="932.91" r="4.84"/><circle class="cls-22" cx="213.52" cy="859.85" r="1.5"/><circle class="cls-22" cx="238.11" cy="915.58" r="1.5"/><circle class="cls-22" cx="236.61" cy="845" r="1.5"/><circle class="cls-22" cx="315.1" cy="912.1" r="1.98"/><circle class="cls-22" cx="337.1" cy="895.68" r="1.98"/><circle class="cls-22" cx="340.78" cy="929.34" r="5.04"/></svg>